<?xml version="1.0" encoding="UTF-8"?>
<svg version="1.1" xmlns="http://www.w3.org/2000/svg" width="512" height="512">
<path d="M0 0 C2.49342861 0.0336522 4.98083479 0.12595658 7.47264767 0.22023582 C9.21136255 0.2426382 10.95015358 0.25970994 12.68897152 0.27168846 C17.24981698 0.31735226 21.80602215 0.43506113 26.36504269 0.56813622 C31.02331917 0.69124904 35.68235138 0.7457729 40.34178829 0.80617332 C49.47207451 0.9345912 58.59892737 1.13918299 67.72655392 1.39211082 C69.90776425 7.6884082 71.77878512 14.02247743 73.48216915 20.46315575 C73.73952847 21.42709251 73.99688778 22.39102928 74.26204586 23.38417625 C75.10565071 26.54629847 75.94537038 29.70943893 76.78514767 32.87257957 C77.37634493 35.09069701 77.96782613 37.30873879 78.55957699 39.5267086 C80.1139489 45.35511342 81.66519975 51.1843439 83.21556759 57.01381493 C85.69221717 66.32467863 88.17295403 75.63445273 90.65494633 84.94389343 C91.51577236 88.17485766 92.3748639 91.40627925 93.23374081 94.63776207 C93.7694203 96.64994035 94.3053465 98.66205298 94.84154415 100.67409325 C95.21967833 102.09392651 95.21967833 102.09392651 95.60545158 103.54244328 C97.33502323 110.00693907 99.15368344 116.4381473 101.06922054 122.850317 C101.72655392 125.39211082 101.72655392 125.39211082 101.72655392 128.39211082 C128.12655392 128.39211082 154.52655392 128.39211082 181.72655392 128.39211082 C180.25851163 132.79623769 179.04939509 135.8709406 176.77733517 139.75148582 C175.88788204 141.28095848 175.88788204 141.28095848 174.98046017 142.84132957 C174.3397961 143.93058739 173.69913204 145.0198452 173.03905392 146.14211082 C172.36398752 147.29932055 171.6895193 148.4568794 171.01561642 149.61476707 C169.61639587 152.01781665 168.21462456 154.41935002 166.81102657 156.8198452 C163.59205999 162.32997941 160.41142365 167.8622258 157.22655392 173.39211082 C155.98842275 175.53803076 154.75014066 177.68386362 153.51171017 179.82961082 C151.23392108 183.77754075 148.95775948 187.72639901 146.68379879 191.67653465 C145.66708193 193.44256604 144.64999733 195.20838514 143.63280392 196.97414207 C142.36254519 199.17945237 141.09296374 201.38515299 139.82421017 203.59132957 C139.24413204 204.59808739 138.66405392 205.6048452 138.06639767 206.64211082 C137.51322872 207.61148582 136.96005978 208.58086082 136.39012814 209.57961082 C135.28709543 211.44443865 134.13208536 213.27954097 132.92626095 215.07961082 C132.36664669 215.92523582 131.80703243 216.77086082 131.23046017 217.64211082 C130.7245837 218.36914207 130.21870724 219.09617332 129.69750118 219.84523582 C127.61889059 225.29760336 130.03921803 232.08587713 131.51048946 237.52638817 C131.78032068 238.53305975 131.78032068 238.53305975 132.05560303 239.56006813 C132.65309826 241.78412662 133.25817937 244.00604612 133.86327267 246.22804832 C134.29476253 247.82829131 134.72575954 249.42866725 135.15630245 251.02916527 C136.08253339 254.46833528 137.01209799 257.90658005 137.94429684 261.34413719 C139.43835901 266.85380279 140.92494074 272.36546988 142.41039181 277.87746239 C144.22361134 284.6038356 146.03851626 291.32974935 147.85570335 298.0550518 C151.00584252 309.71396737 154.14426095 321.37598757 157.27342892 333.04054832 C157.49674074 333.8729812 157.72005257 334.70541409 157.95013142 335.5630722 C159.07350015 339.75101722 160.19656419 343.93904384 161.31941891 348.12712669 C162.66925304 353.16179045 164.01976185 358.19627308 165.37035275 363.23073387 C167.9128168 372.70841026 170.45427101 382.18635721 172.99526882 391.6644268 C173.74539794 394.46239879 174.49558757 397.26035454 175.24577999 400.05830956 C178.10957528 410.7397311 180.97204611 421.42150608 183.83205223 432.10394287 C185.07167735 436.73407376 186.3116943 441.36409851 187.55293941 445.99379539 C188.71490992 450.32794204 189.87544402 454.66247109 191.03501225 458.99726105 C191.4530721 460.55923283 191.87157366 462.12108651 192.29063892 463.68278885 C196.54971492 479.55740788 200.61918654 495.47606224 204.72655392 511.39211082 C178.32655392 511.39211082 151.92655392 511.39211082 124.72655392 511.39211082 C121.35163591 502.39232948 121.35163591 502.39232948 120.38596249 498.73613548 C120.16387773 497.90351 119.94179296 497.07088451 119.71297836 496.21302795 C119.48083476 495.32611456 119.24869116 494.43920116 119.0095129 493.52541161 C118.75480315 492.56591291 118.5000934 491.60641422 118.23766518 490.61783981 C117.39554614 487.44202178 116.55915535 484.26472354 115.72264767 481.08742332 C115.12563853 478.83255315 114.52820732 476.5777947 113.93038082 474.3231411 C112.66180683 469.53640529 111.39548819 464.74908129 110.13100338 459.96126366 C106.85273731 447.55009396 103.55906377 435.14300891 100.26561642 422.73586082 C99.94006834 421.50898174 99.61452026 420.28210266 99.27910709 419.01804543 C93.61153402 397.6626425 87.87047481 376.32833 82.03905392 355.01711082 C81.66444737 353.64717764 81.28984406 352.27724357 80.9152441 350.90730858 C76.88783458 336.13100974 76.88783458 336.13100974 72.72655392 321.39211082 C70.42102958 324.34214868 68.50256077 327.37756368 66.64452267 330.62648582 C66.04962032 331.66289207 65.45471798 332.69929832 64.84178829 333.76711082 C64.20563595 334.88086082 63.5694836 335.99461082 62.91405392 337.14211082 C61.55460242 339.51260667 60.19324331 341.88200555 58.83202267 344.25148582 C58.48718838 344.8523098 58.14235409 345.45313377 57.78707027 346.07216454 C54.46208217 351.86217113 51.09769054 357.62886581 47.72655392 363.39211082 C40.97893686 374.93904907 34.29315804 386.52113579 27.6176672 398.10988426 C24.48975243 403.53871025 21.35796944 408.96530364 18.22655392 414.39211082 C16.97653513 416.55876665 15.72653513 418.72543332 14.47655392 420.89211082 C3.22655392 440.39211082 3.22655392 440.39211082 -8.02344608 459.89211082 C-8.64308231 460.96622215 -9.26271854 462.04033348 -9.90113163 463.14699364 C-11.14191641 465.29753625 -12.38296144 467.44792874 -13.62427616 469.59816551 C-16.54364082 474.65588896 -19.46040817 479.71505576 -22.36777592 484.77968407 C-23.73519374 487.16134585 -25.10411647 489.54214102 -26.47315311 491.92287254 C-27.43409161 493.59537104 -28.3928628 495.26911418 -29.35157108 496.94289207 C-29.93809452 497.96254051 -30.52461796 498.98218895 -31.12891483 500.03273582 C-31.64091434 500.92508934 -32.15291386 501.81744286 -32.6804285 502.73683739 C-33.20612431 503.61307762 -33.73182011 504.48931786 -34.27344608 505.39211082 C-35.04592434 506.9381852 -35.04592434 506.9381852 -35.83400822 508.51549339 C-38.27344608 511.39211082 -38.27344608 511.39211082 -42.13324833 512.11363792 C-43.72128417 512.13100115 -45.30989093 512.11513801 -46.89746952 512.07326317 C-47.76612141 512.07413933 -48.63477329 512.07501549 -49.52974796 512.0759182 C-52.39835677 512.07174096 -55.26462136 512.02508384 -58.13282108 511.97804832 C-60.12249315 511.96685664 -62.11218175 511.95831633 -64.10187626 511.95232201 C-69.33675698 511.92942157 -74.57063757 511.87048741 -79.80512333 511.80409813 C-85.14729119 511.74270205 -90.4896208 511.71531268 -95.83203983 511.68507957 C-106.31294782 511.62074574 -116.79311376 511.51835115 -127.27344608 511.39211082 C-125.81280845 507.64910136 -124.1480658 504.24795155 -122.14063358 500.76320457 C-121.50762333 499.66025047 -120.87461308 498.55729637 -120.22242069 497.42091942 C-119.53113354 496.22379477 -118.8398076 495.02669253 -118.14844608 493.82961082 C-117.42878779 492.57801511 -116.7094741 491.32622119 -115.9904871 490.07423973 C-114.49609518 487.47258093 -113.00022168 484.87178219 -111.50342655 482.27150536 C-109.38905719 478.59606918 -107.2843398 474.91519593 -105.18360233 471.23195457 C-104.85432743 470.6546711 -104.52505253 470.07738762 -104.1857996 469.4826107 C-103.85781376 468.90755287 -103.52982792 468.33249504 -103.19190311 467.74001122 C-96.80019925 456.53444215 -90.37206743 445.35030911 -83.91773319 434.18068504 C-79.34617633 426.26448109 -74.8040182 418.33180328 -70.27344608 410.39211082 C-63.26565122 398.11241827 -56.21069908 385.86036759 -49.13672733 373.61867332 C-47.25309558 370.35687075 -45.37222287 367.09349239 -43.49219608 363.82961082 C-36.87517211 352.34393923 -30.23101362 340.87501311 -23.54273319 329.43068504 C-19.26099691 322.09898603 -15.01124601 314.74928101 -10.77344608 307.39211082 C-5.96492764 299.04412624 -1.13438926 290.70967898 3.72655392 282.39211082 C9.82024337 271.96320395 15.86625302 261.50738726 21.89452267 251.04054832 C24.20862653 247.02273262 26.52683574 243.00735657 28.85120296 238.99547386 C30.22904895 236.61725092 31.60564177 234.23830362 32.98219967 231.85933495 C33.95105725 230.18614291 34.92166783 228.51396632 35.8923254 226.84181786 C36.48215206 225.82200829 37.07197872 224.80219872 37.67967892 223.75148582 C38.19691525 222.85913231 38.71415157 221.96677879 39.24706173 221.04738426 C39.73529415 220.17114403 40.22352657 219.29490379 40.72655392 218.39211082 C41.29427013 217.5437365 41.86198635 216.69536217 42.44690609 215.82127953 C44.26443151 210.9507197 43.08919246 207.74815176 41.68041134 202.87013817 C41.42725658 201.92959084 41.17410183 200.9890435 40.91327572 200.01999474 C40.07283556 196.91683714 39.20247135 193.82290907 38.33202267 190.72804832 C37.74278945 188.57199307 37.15560329 186.4153774 36.57038021 184.25823021 C35.02548076 178.58284324 33.45577564 172.91462547 31.87993526 167.24776268 C29.36141295 158.17201089 26.88366252 149.08500899 24.40010166 139.99964333 C23.52893165 136.8248375 22.64915121 133.65252258 21.76761532 130.48058128 C21.23195606 128.5388413 20.69637349 126.59708015 20.16088009 124.65529442 C19.91304775 123.77208015 19.66521542 122.88886589 19.40987301 121.97888756 C19.18676952 121.16588692 18.96366604 120.35288628 18.73380184 119.51524925 C18.53817245 118.81141798 18.34254305 118.10758671 18.14098549 117.38242722 C17.72655392 115.39211082 17.72655392 115.39211082 17.72655392 111.39211082 C17.06655392 111.39211082 16.40655392 111.39211082 15.72655392 111.39211082 C15.32388302 112.46465111 15.32388302 112.46465111 14.91307735 113.55885887 C13.70860963 116.43495928 12.30800433 119.02879451 10.74217892 121.72414207 C10.14397335 122.75740623 9.54576778 123.79067039 8.92943478 124.85524559 C8.28498409 125.96053612 7.64053341 127.06582664 6.97655392 128.20461082 C6.29991272 129.37102777 5.6235664 130.53761581 4.94750118 131.70436668 C1.68350329 137.33248263 -1.59807804 142.95024053 -4.88672733 148.56398582 C-6.03664215 150.52742488 -7.18638348 152.49096554 -8.33594608 154.45461082 C-8.9086121 155.43276756 -9.48127811 156.4109243 -10.07129765 157.41872215 C-14.8276021 165.56980883 -19.43731089 173.79835362 -24.02808475 182.04347801 C-28.54834129 190.14355614 -33.1929608 198.16453821 -37.88501835 206.16603661 C-42.37896045 213.83697815 -46.80804018 221.54368503 -51.21094608 229.26711082 C-58.23744788 241.58976248 -65.31287311 253.88349823 -72.41016483 266.16554832 C-74.29379658 269.4273509 -76.17466929 272.69072926 -78.05469608 275.95461082 C-84.67172006 287.44028242 -91.31587854 298.90920854 -98.00415897 310.35353661 C-102.28589525 317.68523561 -106.53564615 325.03494064 -110.77344608 332.39211082 C-115.58196452 340.74009541 -120.41250291 349.07454266 -125.27344608 357.39211082 C-132.02057722 368.93933569 -138.70683979 380.52113202 -145.3823328 392.10988426 C-148.51024757 397.53871025 -151.64203056 402.96530364 -154.77344608 408.39211082 C-156.02346487 410.55876665 -157.27346487 412.72543332 -158.52344608 414.89211082 C-161.02344608 419.22544416 -163.52344608 423.55877749 -166.02344608 427.89211082 C-166.64227665 428.96477196 -167.26110722 430.03743309 -167.89869022 431.14259911 C-169.14780126 433.30768153 -170.39698738 435.47272065 -171.64624882 437.63771629 C-174.78546918 443.07826788 -177.92335171 448.51958298 -181.05860233 453.96242332 C-187.79028331 465.64537682 -194.54273493 477.31541682 -201.35572147 488.95119286 C-205.71431944 496.40313943 -209.98948095 503.89517184 -214.27344608 511.39211082 C-243.97344608 511.39211082 -273.67344608 511.39211082 -304.27344608 511.39211082 C-295.18448287 494.3503048 -295.18448287 494.3503048 -291.71094608 488.57961082 C-287.44519438 481.40396775 -283.2527049 474.18817271 -279.08594608 466.95461082 C-278.44842411 465.84819237 -277.81090214 464.74177391 -277.15406132 463.60182762 C-275.84551314 461.33037625 -274.53716513 459.05880955 -273.22901249 456.78713036 C-270.08012555 451.32041103 -266.92661345 445.85636195 -263.77344608 440.39211082 C-262.52342258 438.22545772 -261.27342261 436.05879103 -260.02344608 433.89211082 C-192.52344608 316.89211083 -192.52344608 316.89211083 -190.64869022 313.64259911 C-189.39780128 311.47434818 -188.14698757 309.30605386 -186.89624882 307.13771629 C-183.78546273 301.74493167 -180.67340371 296.35288989 -177.55860233 290.96242332 C-171.42146278 280.33825079 -165.30325539 269.70390446 -159.22528934 259.04579735 C-153.36731773 248.77363845 -147.46054761 238.5318197 -141.48975468 228.32472801 C-135.33551619 217.80099763 -129.24965521 207.23815162 -123.16455936 196.67433739 C-120.0366446 191.2455114 -116.9048616 185.81891801 -113.77344608 180.39211082 C-112.52342729 178.225455 -111.2734273 176.05878833 -110.02344608 173.89211082 C-92.52344608 143.55877749 -75.02344608 113.22544416 -57.52344608 82.89211082 C-56.90461552 81.81944969 -56.28578495 80.74678856 -55.64820194 79.64162254 C-54.3990909 77.47654012 -53.14990479 75.311501 -51.90064335 73.14650536 C-48.76142299 67.70595377 -45.62354046 62.26463867 -42.48828983 56.82179832 C-23.06636711 23.11403926 -23.06636711 23.11403926 -18.9441309 16.36562157 C-17.20694234 13.43438152 -17.20694234 13.43438152 -16.05175114 10.27043724 C-12.4706114 2.04027973 -8.60758829 0.11065195 0 0 Z " fill="#000000" transform="translate(305.27344608306885,-0.39211082458496094)"/>
</svg>
