<?xml version="1.0" encoding="UTF-8"?>
<svg version="1.1" xmlns="http://www.w3.org/2000/svg" width="1280" height="687">
<path d="M0 0 C7.23401615 6.6285942 11.87898304 15.9402533 12.37109375 25.81640625 C12.38114218 27.72560742 12.32595576 29.63495759 12.2578125 31.54296875 C12.83394287 31.70442383 13.41007324 31.86587891 14.00366211 32.03222656 C55.91842997 44.15116073 96.58097401 65.95483641 134.56103516 87.05566406 C137.45392392 88.65112653 140.35965264 90.22090503 143.26953125 91.78515625 C144.28805176 92.33381348 145.30657227 92.8824707 146.35595703 93.44775391 C148.39635391 94.54260888 150.44025416 95.63096273 152.48779297 96.71240234 C157.33429121 99.29735956 161.98416851 101.96377063 166.50390625 105.08984375 C174.39106273 110.91243066 174.39106273 110.91243066 183.62890625 111.96875 C186.70963648 110.23041874 189.33624317 108.3307386 192.09912109 106.14111328 C196.5078812 102.87717485 201.3683499 100.30859096 206.1328125 97.60546875 C207.79038574 96.64870239 207.79038574 96.64870239 209.48144531 95.67260742 C280.37788948 54.77555807 358.27677972 21.61250996 454.2578125 9.23046875 C454.99032227 9.14906647 455.72283203 9.06766418 456.47753906 8.98379517 C474.29390789 7.03600958 492.02531132 6.30426665 509.9453125 6.29296875 C510.91515076 6.29229401 511.88498901 6.29161926 512.88421631 6.29092407 C526.84988853 6.30633554 540.56619663 6.4943863 554.2578125 9.54296875 C555.03044434 9.70925781 555.80307617 9.87554688 556.59912109 10.046875 C579.63190167 15.19812847 601.65932467 26.73050569 615.0078125 46.85546875 C630.0970466 72.2763902 631.83416527 100.50957228 624.65576172 128.92626953 C621.23550416 141.85663649 616.54542981 154.27078976 611.2578125 166.54296875 C610.95149902 167.25485352 610.64518555 167.96673828 610.32958984 168.70019531 C602.11216365 187.51459412 591.43764296 205.31941369 580.32421875 222.546875 C578.23483469 225.82598495 576.49450837 229.08361694 574.91015625 232.6328125 C570.51449904 241.84891342 570.51449904 241.84891342 566.2578125 244.54296875 C557.75727818 246.55248626 548.84565652 245.5902668 540.2578125 244.54296875 C541.44023523 241.33216232 542.65861948 238.73776733 544.8046875 236.07421875 C545.56664429 235.11068481 545.56664429 235.11068481 546.34399414 234.12768555 C546.8930542 233.439729 547.44211426 232.75177246 548.0078125 232.04296875 C578.55094176 192.87730883 614.12744518 138.8430817 607.796875 86.75 C604.95963921 71.71265031 597.63301976 59.65677439 585.2578125 50.54296875 C577.12948168 45.73290945 568.83307402 42.08381706 559.6953125 39.66796875 C558.97778809 39.47726807 558.26026367 39.28656738 557.52099609 39.09008789 C543.79825214 35.73310656 530.11424481 35.16647624 516.0703125 35.23046875 C515.19320618 35.23295624 514.31609985 35.23544373 513.41241455 35.23800659 C451.72634691 35.50692359 389.81199119 52.75660981 333.03027344 76.0078125 C329.58848906 77.41409854 326.13417338 78.78744552 322.67733765 80.15625 C295.52790503 90.90807586 268.87419359 102.4610355 243.2578125 116.54296875 C242.14051758 117.15414551 241.02322266 117.76532227 239.87207031 118.39501953 C236.14215807 120.43651771 232.4179538 122.48824866 228.6953125 124.54296875 C228.08902008 124.8767453 227.48272766 125.21052185 226.85806274 125.55441284 C225.13376868 126.50517754 223.41252145 127.46146156 221.69140625 128.41796875 C220.69165771 128.97226563 219.69190918 129.5265625 218.66186523 130.09765625 C216.18438046 131.45528002 216.18438046 131.45528002 214.2578125 133.54296875 C215.88009766 134.54650391 215.88009766 134.54650391 217.53515625 135.5703125 C249.9872116 155.78375817 280.99084438 178.21185428 311.2578125 201.54296875 C315.58920553 204.87882972 319.92193208 208.21294193 324.2578125 211.54296875 C325.02077637 212.12949219 325.78374023 212.71601563 326.56982422 213.3203125 C336.79075317 221.17011229 347.04078808 228.95234618 357.57299805 236.38208008 C358.26433838 236.87345459 358.95567871 237.3648291 359.66796875 237.87109375 C360.26746338 238.29293945 360.86695801 238.71478516 361.48461914 239.14941406 C363.58013291 240.79628073 365.40498634 242.63027539 367.2578125 244.54296875 C335.54426081 247.09621409 335.54426081 247.09621409 326.67041016 240.14526367 C324.02454257 237.66390429 321.50710011 235.10092011 319.06445312 232.41943359 C316.15987022 229.40259248 312.8386239 227.04030019 309.4453125 224.60546875 C308.1198071 223.62674014 306.79560958 222.64623802 305.47265625 221.6640625 C304.79315918 221.16245605 304.11366211 220.66084961 303.41357422 220.14404297 C301.1023235 218.42748779 298.80592276 216.69239153 296.51171875 214.953125 C285.76449162 206.81465364 274.85501236 198.96242242 263.77099609 191.29003906 C261.22305403 189.51880598 258.68627093 187.73262229 256.15234375 185.94140625 C246.44028374 179.08150729 236.64212062 172.41534682 226.60644531 166.03808594 C223.94116897 164.3413965 221.28308229 162.63371767 218.625 160.92578125 C216.66948066 159.67284953 214.71375352 158.42024208 212.7578125 157.16796875 C211.8498291 156.58466797 210.9418457 156.00136719 210.00634766 155.40039062 C204.52816671 151.90612329 198.97985329 148.62232098 193.2578125 145.54296875 C179.66391595 153.83429529 166.30731781 162.41607794 153.1328125 171.35546875 C152.49366913 171.78846283 151.85452576 172.22145691 151.1960144 172.66757202 C130.7054647 186.56508925 110.56904636 201.04211811 91.2578125 216.54296875 C90.60151855 217.06777832 89.94522461 217.59258789 89.26904297 218.13330078 C81.8687732 224.05873418 74.53642412 230.01243362 67.56640625 236.4453125 C66.80457031 237.13753906 66.04273438 237.82976562 65.2578125 238.54296875 C64.8306897 239.03689621 64.40356689 239.53082367 63.96350098 240.03971863 C60.31442653 243.85543861 57.51026522 244.97146621 52.23071289 245.22412109 C49.85541965 245.22317738 47.47998551 245.18964366 45.10546875 245.12890625 C43.85019882 245.12041656 42.59492889 245.11192688 41.30162048 245.10317993 C37.98471012 245.07537453 34.67033507 245.02160447 31.35412598 244.95495605 C27.96221682 244.89327017 24.57004431 244.86610945 21.17773438 244.8359375 C14.53706678 244.76991634 7.89758582 244.66961019 1.2578125 244.54296875 C8.30877039 237.47101078 15.73773142 231.08305625 23.61547852 224.96020508 C28.17867412 221.40970859 32.66320975 217.77277917 37.1328125 214.10546875 C43.01591014 209.29350746 49.00793057 204.66453573 55.11230469 200.13745117 C60.26597887 196.30985024 65.33146429 192.37932856 70.3828125 188.41796875 C77.26903436 183.03186049 84.27270998 177.87267521 91.42236328 172.84423828 C94.12192216 170.93034512 96.79513411 168.98073394 99.47119141 167.03417969 C115.27901983 155.54704202 131.34726933 144.43432939 147.5703125 133.54296875 C148.60881348 132.84196045 149.64731445 132.14095215 150.71728516 131.41870117 C152.15467041 130.45927612 152.15467041 130.45927612 153.62109375 129.48046875 C154.46969971 128.91199219 155.31830566 128.34351563 156.19262695 127.7578125 C158.2578125 126.54296875 158.2578125 126.54296875 160.2578125 126.54296875 C157.70121087 123.64068732 154.80367728 122.02488423 151.4296875 120.171875 C150.85249969 119.85343124 150.27531189 119.53498749 149.68063354 119.20689392 C147.79264924 118.16759449 145.90044807 117.13627018 144.0078125 116.10546875 C142.6944089 115.38558048 141.38109592 114.66552684 140.06787109 113.9453125 C130.19502707 108.54382411 120.24726294 103.29288213 110.24609375 98.1328125 C107.30781528 96.61559034 104.38429102 95.08078159 101.48828125 93.484375 C89.35223563 86.81301735 76.7339633 81.14100513 64.13897705 75.40087891 C62.27658952 74.55153206 60.41529269 73.69983435 58.55419922 72.84765625 C45.51920342 66.88523691 32.43029991 61.08684504 19.1328125 55.73046875 C18.07747314 55.30354736 17.02213379 54.87662598 15.93481445 54.43676758 C14.96632568 54.05286865 13.99783691 53.66896973 13 53.2734375 C12.1529248 52.93723389 11.30584961 52.60103027 10.43310547 52.25463867 C8.1640564 51.3874974 8.1640564 51.3874974 5.2578125 51.54296875 C3.69815839 53.11550369 3.69815839 53.11550369 2.1953125 55.16796875 C-4.28869242 62.89942493 -12.70096812 66.97975399 -22.72265625 67.9140625 C-34.78388658 68.26826068 -43.73706681 66.25669634 -53.1796875 58.23046875 C-60.07457455 51.53447267 -65.47347979 43.38119084 -65.81396484 33.44921875 C-65.81613132 31.48032456 -65.78180767 29.51146545 -65.7421875 27.54296875 C-112.96681488 17.71908021 -168.02637917 7.86376868 -211.7734375 34.4765625 C-215.49509696 37.06703336 -218.82969126 39.90669423 -222.0703125 43.07421875 C-223.7421875 44.54296875 -223.7421875 44.54296875 -225.7421875 44.54296875 C-226.01160156 45.10886719 -226.28101563 45.67476562 -226.55859375 46.2578125 C-227.79735215 48.64947476 -229.21622179 50.84510314 -230.6796875 53.10546875 C-239.07570835 67.2699049 -238.39410608 84.16726229 -234.64038086 99.78710938 C-222.05041314 147.87400886 -190.57217707 188.7843009 -161.49780273 228.08862305 C-160.41528204 229.55249891 -159.33516063 231.01815302 -158.2578125 232.48583984 C-157.25669928 233.84463173 -156.24640774 235.19671442 -155.2265625 236.54150391 C-151.7421875 241.21384524 -151.7421875 241.21384524 -151.7421875 244.54296875 C-157.31036231 244.76630658 -162.87590608 244.92914369 -168.44750977 245.03735352 C-170.34022449 245.08247591 -172.23262784 245.1437948 -174.12426758 245.22192383 C-189.72029263 245.84970384 -189.72029263 245.84970384 -194.34643555 242.85986328 C-196.20542594 240.51757159 -197.45089686 238.23627513 -198.7421875 235.54296875 C-199.8329278 233.88042559 -200.94152098 232.22947703 -202.06640625 230.58984375 C-203.19387262 228.82828126 -204.31473975 227.06248121 -205.4296875 225.29296875 C-206.03345215 224.33769287 -206.6372168 223.38241699 -207.25927734 222.39819336 C-235.7142094 177.02925566 -271.3339135 115.23217271 -258.70703125 59.28515625 C-254.11308477 41.46733953 -244.68525128 27.07898718 -228.8137207 17.38110352 C-183.77128946 -8.8816659 -126.02744327 -2.56042979 -77.04296875 6.45703125 C-74.943736 6.82492333 -72.84351701 7.18724835 -70.7421875 7.54296875 C-69.29259644 7.79578613 -69.29259644 7.79578613 -67.8137207 8.05371094 C-65.39940906 8.40183832 -63.17730664 8.67495516 -60.7421875 8.54296875 C-58.47772775 7.03223997 -58.47772775 7.03223997 -57.3046875 4.54296875 C-51.79861578 -3.82051933 -43.22569405 -8.03065981 -33.6171875 -10.14453125 C-20.85177444 -11.17400005 -9.89595196 -8.27621095 0 0 Z " fill="#166EC1" transform="translate(463.7421875,13.45703125)"/>
<path d="M0 0 C1.2669873 -0.00265869 2.53397461 -0.00531738 3.83935547 -0.00805664 C8.7450932 0.00598748 13.65077139 0.0382797 18.55627441 0.08821106 C22.98740513 0.13138673 27.41255287 0.1045396 31.84375 0.04296875 C46.77399107 0.00007225 46.77399107 0.00007225 51.859375 2.88671875 C54.11188141 5.16297743 55.8900896 7.54505879 57.76953125 10.1328125 C59.39036339 11.58161602 61.06141595 12.97551862 62.76953125 14.3203125 C63.69378906 15.06023437 64.61804688 15.80015625 65.5703125 16.5625 C66.32755615 17.16723145 66.32755615 17.16723145 67.10009766 17.78417969 C68.97821344 19.30139401 70.83370864 20.84378825 72.6875 22.390625 C82.16101453 30.28833612 91.81430946 37.85273018 101.76953125 45.1328125 C102.45563477 45.63603027 103.14173828 46.13924805 103.84863281 46.65771484 C123.21680524 60.83750513 142.94159645 74.48039743 163.14697266 87.44042969 C165.64231052 89.05071474 168.11959033 90.68555073 170.59375 92.328125 C172.02694476 93.26363237 173.46051149 94.19857025 174.89453125 95.1328125 C175.52738037 95.56062012 176.16022949 95.98842773 176.81225586 96.42919922 C180.21655127 98.6314362 180.21655127 98.6314362 184.15405273 98.921875 C187.11372763 98.02897205 189.22606043 96.78532832 191.796875 95.0703125 C193.2207251 94.12986084 193.2207251 94.12986084 194.67333984 93.17041016 C195.67445801 92.49800293 196.67557617 91.8255957 197.70703125 91.1328125 C199.80182366 89.7443998 201.89687438 88.35637675 203.9921875 86.96875 C205.50063232 85.96473145 205.50063232 85.96473145 207.03955078 84.94042969 C210.21610374 82.83712097 213.42366318 80.79246823 216.64453125 78.7578125 C248.6649614 58.22592456 279.45404999 35.71730748 309.33203125 12.1953125 C309.90945068 11.74341553 310.48687012 11.29151855 311.08178711 10.82592773 C313.45891287 8.96437352 315.81853076 7.0917501 318.1328125 5.15234375 C318.79667969 4.60964844 319.46054687 4.06695312 320.14453125 3.5078125 C320.66789063 3.06179688 321.19125 2.61578125 321.73046875 2.15625 C328.41240751 -1.19752003 337.51441283 0.01629386 344.76953125 0.0703125 C346.50396484 0.07708008 346.50396484 0.07708008 348.2734375 0.08398438 C351.1055235 0.09568721 353.93749936 0.11208254 356.76953125 0.1328125 C355.50996355 3.91151559 354.36805362 4.25349855 351.01953125 6.3203125 C344.98941519 10.22088698 339.28030065 14.45071124 333.58203125 18.8203125 C332.67227539 19.51793701 331.76251953 20.21556152 330.82519531 20.93432617 C328.99929383 22.33708583 327.17425033 23.74096304 325.35009766 25.14599609 C321.66366966 27.98423176 317.96666149 30.80854191 314.26953125 33.6328125 C312.8931485 34.6847903 311.51684771 35.73687534 310.140625 36.7890625 C309.43921387 37.3253125 308.73780273 37.8615625 308.01513672 38.4140625 C305.56828167 40.28684567 303.12407627 42.16306167 300.6796875 44.0390625 C290.20666868 52.06391814 279.63988303 59.92472157 268.90527344 67.59570312 C266.86129383 69.06677029 264.83271642 70.55645462 262.80859375 72.0546875 C252.68837923 79.51535265 242.29423318 86.53940271 231.83203125 93.5078125 C230.7639473 94.21948074 230.7639473 94.21948074 229.67428589 94.94552612 C227.59401767 96.33018339 225.51229761 97.71261792 223.4296875 99.09375 C222.76958176 99.53193558 222.10947601 99.97012115 221.42936707 100.42158508 C218.4158844 102.41423459 215.39247723 104.38185299 212.31982422 106.28222656 C210.80799561 107.21760254 210.80799561 107.21760254 209.265625 108.171875 C208.38962646 108.70248535 207.51362793 109.2330957 206.61108398 109.77978516 C206.00337158 110.22628418 205.39565918 110.6727832 204.76953125 111.1328125 C204.76953125 111.7928125 204.76953125 112.4528125 204.76953125 113.1328125 C240.89414211 133.29373315 277.40019838 151.57974912 315.96044922 166.64013672 C319.15637673 167.88947715 322.34474282 169.15701637 325.53149414 170.42955017 C393.68380644 197.61598874 489.35652186 230.13791621 561.08203125 201.8203125 C577.05412467 194.64603428 587.10551269 186.38458306 594.01953125 170.1328125 C603.69618773 144.00584001 595.0246645 114.24406639 584 89.8828125 C571.60561621 63.30783115 556.75983157 38.30416637 538.76953125 15.1328125 C537.01107042 12.84749284 535.26338354 10.55428665 533.51953125 8.2578125 C532.42898438 6.83855469 532.42898438 6.83855469 531.31640625 5.390625 C529.76953125 3.1328125 529.76953125 3.1328125 529.76953125 1.1328125 C538.35405984 -0.32541614 547.32771442 -1.50132204 555.76953125 1.1328125 C562.23518752 6.11693929 565.65805898 13.84815415 569.20068359 21.02490234 C571.08299698 24.7537927 573.23109238 28.25223499 575.45068359 31.78686523 C600.47733442 71.80111327 625.30012437 120.53961152 616.64453125 169.1953125 C611.31618933 191.42993557 599.02404039 209.70949847 579.61816406 222.01904297 C523.44519791 255.86229067 435.84189975 238.84576195 375.95703125 224.0078125 C308.31142696 207.0039994 243.54257209 177.12257147 184.2265625 140.73828125 C183.35644531 140.21322998 182.48632812 139.68817871 181.58984375 139.1472168 C179.96439464 138.16564935 178.34778334 137.16923424 176.7421875 136.15551758 C176.02546875 135.7252124 175.30875 135.29490723 174.5703125 134.8515625 C173.64472534 134.27825195 173.64472534 134.27825195 172.70043945 133.69335938 C169.08893798 132.6449326 166.26576134 134.87258375 163.10424805 136.53051758 C162.15203369 137.06572021 161.19981934 137.60092285 160.21875 138.15234375 C159.14061035 138.755625 158.0624707 139.35890625 156.95166016 139.98046875 C156.38296204 140.30031738 155.81426392 140.62016602 155.22833252 140.94970703 C152.18509404 142.66023755 149.13517692 144.35879117 146.0859375 146.05859375 C145.15645294 146.57711411 145.15645294 146.57711411 144.20819092 147.10610962 C126.03778249 157.23592599 107.64868993 166.93527799 89.13037109 176.41064453 C86.13744759 177.94428411 83.15036642 179.4886871 80.1640625 181.03515625 C69.67099163 186.42478345 58.99491139 191.36735332 48.20703125 196.1328125 C47.53438232 196.43246918 46.8617334 196.73212585 46.16870117 197.04086304 C38.67391935 200.3699442 31.19711455 203.41853899 23.37890625 205.90625 C11.14939911 209.03001339 11.14939911 209.03001339 1.33886719 215.98535156 C-0.07486193 219.40200268 -0.24804837 222.59420402 -0.21875 226.2578125 C-0.23979273 233.21594328 -3.72861372 238.34338793 -8.26953125 243.40625 C-18.06294869 252.71518743 -28.08719793 255.67102181 -41.3671875 255.41015625 C-53.72645948 254.52288799 -62.12786591 247.91170327 -69.98046875 238.8671875 C-71.23046875 237.1328125 -71.23046875 237.1328125 -71.23046875 235.1328125 C-71.85630859 235.319646 -72.48214844 235.50647949 -73.12695312 235.69897461 C-80.91685822 237.93342512 -88.73647932 239.39736532 -96.73046875 240.6953125 C-97.71824814 240.8573114 -97.71824814 240.8573114 -98.72598267 241.02258301 C-144.87184352 248.56987827 -201.20272786 252.95432842 -242.23046875 226.1328125 C-258.56530602 214.0109928 -267.45893399 197.72325834 -270.7890625 177.7890625 C-277.50496139 122.16002389 -244.0073383 61.68903314 -214.10375977 17.09790039 C-212.13046057 14.10055026 -212.13046057 14.10055026 -210.51147461 10.55639648 C-208.50036766 6.61698623 -206.67636259 3.99675753 -203.23046875 1.1328125 C-196.46635476 -0.94788201 -189.12902562 -0.08818492 -182.16796875 0.3203125 C-180.23391836 0.38559622 -178.29965629 0.44489892 -176.36523438 0.49804688 C-171.64838049 0.64060497 -166.94176737 0.86438506 -162.23046875 1.1328125 C-163.81343161 5.29707414 -165.85284994 8.68312569 -168.48046875 12.2578125 C-168.91520508 12.85835449 -169.34994141 13.45889648 -169.79785156 14.07763672 C-172.91243761 18.36751778 -176.07142644 22.62468687 -179.22558594 26.88549805 C-204.98137665 61.70311329 -232.77775459 99.72344316 -244.23046875 142.1328125 C-244.56691406 143.37675781 -244.90335938 144.62070312 -245.25 145.90234375 C-248.80334266 161.13790885 -249.42595457 177.77716077 -241.7578125 191.83203125 C-229.76832528 210.34062499 -208.81868817 219.33372713 -188.07421875 224.12890625 C-176.24605827 226.60099179 -164.79238691 227.37270278 -152.73046875 227.3828125 C-151.63966507 227.38382462 -151.63966507 227.38382462 -150.52682495 227.38485718 C-129.85845208 227.35462167 -110.05039096 224.33906915 -89.8203125 220.21875 C-85.29853246 219.30814022 -80.81555558 218.62820003 -76.23046875 218.1328125 C-76.29234375 217.0190625 -76.35421875 215.9053125 -76.41796875 214.7578125 C-76.36496377 204.72220235 -72.03127679 194.94191209 -64.96875 187.8671875 C-55.76623213 180.06599496 -45.30469082 176.1493917 -33.23046875 177.1328125 C-21.75299253 178.93619758 -12.5573589 183.99186916 -5.23046875 193.1328125 C-5.23046875 193.7928125 -5.23046875 194.4528125 -5.23046875 195.1328125 C43.22562547 175.30440537 90.84633624 153.75843805 136.23730469 127.57275391 C140.71244807 125.02797993 145.24077342 122.58054194 149.76953125 120.1328125 C143.27579929 115.54470975 136.71687783 111.07618203 130.08203125 106.6953125 C106.77131938 91.21988717 84.01732609 75.00458851 61.8125 57.984375 C58.03788132 55.09332945 54.23927286 52.23792307 50.42163086 49.40405273 C43.65789756 44.38189461 37.0677478 39.18845586 30.55517578 33.84472656 C26.53496846 30.54999245 22.47050106 27.34034366 18.33203125 24.1953125 C13.0358399 20.15348226 7.85478185 15.98700537 2.70703125 11.7578125 C1.98008057 11.16234619 1.25312988 10.56687988 0.50415039 9.95336914 C-2.89721935 7.1454146 -6.19012222 4.33899612 -9.23046875 1.1328125 C-5.92889792 0.03228889 -3.47639785 0.00346921 0 0 Z " fill="#166EC1" transform="translate(474.23046875,427.8671875)"/>
<path d="M0 0 C41.51660336 -0.1209091 41.51660336 -0.1209091 58.92382812 -0.14648438 C70.93957361 -0.16428014 82.95525595 -0.18519249 94.97094727 -0.22631836 C103.72219868 -0.25625677 112.47339883 -0.27558357 121.22470003 -0.28226548 C125.85676805 -0.28617021 130.48868943 -0.29532232 135.12071037 -0.31719017 C139.48485788 -0.33762552 143.848799 -0.3438196 148.21298981 -0.33932304 C149.81049027 -0.3401451 151.40799799 -0.34606867 153.00545692 -0.35761642 C162.38817298 -0.42208797 170.44943188 -0.27988116 178.75 4.625 C187.39367895 13.74888333 188.55975806 24.37222498 188.31640625 36.34375 C188.05397064 41.84281909 186.81992308 46.25698184 184 51 C183.63777344 51.65097656 183.27554688 52.30195313 182.90234375 52.97265625 C179.89606262 57.77251528 175.92774701 60.34659776 171 63 C173.21861344 64.70662572 175.43305722 66.26945782 177.8125 67.75 C185.80314403 73.39045461 190.82004419 79.71451823 193.25 89.25 C196.09245466 105.96880151 194.65273027 122.39380907 184.91015625 136.625 C178.70055902 144.34572621 169.65781374 148.39508069 160 150 C157.7762106 150.08787117 155.55003278 150.12200003 153.32450867 150.12025452 C152.66686817 150.12110894 152.00922766 150.12196337 151.33165866 150.12284368 C149.13603542 150.12448603 146.9404892 150.11899757 144.74487305 150.11352539 C143.16780092 150.11324322 141.59072867 150.11340183 140.01365662 150.1139679 C135.73721806 150.11425472 131.46080756 150.10837652 127.18437552 150.10139394 C122.713398 150.09514131 118.24241982 150.09455509 113.7714386 150.09336853 C105.30718272 150.09026085 96.84293977 150.08205504 88.37868959 150.07201904 C76.93940174 150.05875008 65.50011036 150.05335345 54.06081676 150.04751682 C36.04053483 150.03811479 18.02028017 150.01819209 0 150 C0 100.5 0 51 0 0 Z M66 39 C66 44.94 66 50.88 66 57 C73.1715669 57.12364115 80.34251281 57.21436178 87.51489258 57.2746582 C89.95445564 57.29979496 92.39394345 57.33390946 94.83325195 57.37719727 C98.34084646 57.43788229 101.8474449 57.466219 105.35546875 57.48828125 C106.99010323 57.52699089 106.99010323 57.52699089 108.65776062 57.56648254 C114.8507525 57.59599205 114.8507525 57.59599205 120.1965332 54.68823242 C122.56360811 51.15989049 122.59648801 49.17541608 122 45 C120.25271222 41.27196535 120.25271222 41.27196535 117 39 C115.36582405 38.9097165 113.72797163 38.88244342 112.09130859 38.88647461 C111.07040131 38.88655014 110.04949402 38.88662567 108.99765015 38.88670349 C107.89240997 38.89186478 106.7871698 38.89702606 105.6484375 38.90234375 C103.95468491 38.90446617 103.95468491 38.90446617 102.22671509 38.90663147 C98.60945012 38.91224256 94.99224636 38.92479697 91.375 38.9375 C88.92708423 38.94251357 86.47916748 38.94707672 84.03125 38.95117188 C78.02080964 38.96221561 72.01041521 38.97948771 66 39 Z M66 91 C66 96.61 66 102.22 66 108 C73.88433757 108.09040077 81.76827166 108.16377239 89.65298843 108.20724869 C93.31426511 108.2281161 96.97516858 108.25641706 100.63623047 108.30175781 C104.16998711 108.34524763 107.70338499 108.36914348 111.23738861 108.37950897 C113.24051252 108.39048737 115.24349226 108.42170876 117.24639893 108.45318604 C118.46736267 108.45348816 119.68832642 108.45379028 120.94628906 108.45410156 C122.55845306 108.46742523 122.55845306 108.46742523 124.20318604 108.48101807 C127.71077516 107.8777553 128.85482464 106.79147869 131 104 C132.09834318 99.97274169 132.44280454 97.92586404 130.625 94.125 C129.17208818 92.1280336 129.17208818 92.1280336 128 91 C126.06693502 90.90603943 124.13041162 90.88256483 122.19506836 90.88647461 C120.95385727 90.88655014 119.71264618 90.88662567 118.43382263 90.88670349 C117.0691626 90.89181089 115.70450298 90.8970269 114.33984375 90.90234375 C112.95121817 90.904208 111.56259193 90.90563187 110.17396545 90.90663147 C106.51278885 90.91045613 102.8516517 90.92028597 99.19049072 90.93133545 C95.45707737 90.94155068 91.72365766 90.94612933 87.99023438 90.95117188 C80.66013615 90.9619083 73.33007862 90.97950466 66 91 Z " fill="#221E1F" transform="translate(3,268)"/>
<path d="M0 0 C38.09532357 -0.16121214 38.09532357 -0.16121214 54.10742188 -0.1953125 C65.14615343 -0.21901062 76.18476251 -0.24681019 87.22338867 -0.30175781 C95.26418493 -0.34176371 103.30488144 -0.36746543 111.34577447 -0.37635398 C115.59908773 -0.38154557 119.85211576 -0.39365272 124.10533714 -0.42292023 C128.1182557 -0.45030736 132.1307747 -0.45839861 136.14377785 -0.45243073 C137.6073792 -0.45352065 139.07099556 -0.46133486 140.53451538 -0.4768219 C154.80056149 -0.62023141 167.26646296 1.94361593 177.96484375 11.8125 C185.93066761 20.16566836 189 31.30880283 189 42.6796875 C188.33745336 56.39992412 184.97239802 69.02760198 175 79 C168.70985419 83.58282052 162.43680154 85.92822234 155 88 C164.59042202 104.08176958 164.59042202 104.08176958 174.34765625 120.0625 C174.70197723 120.63606232 175.05629822 121.20962463 175.4213562 121.80056763 C177.12400776 124.55463694 178.83095238 127.3059402 180.54296875 130.05419922 C181.16945313 131.06498535 181.7959375 132.07577148 182.44140625 133.1171875 C183.25653687 134.42598877 183.25653687 134.42598877 184.08813477 135.76123047 C186.84983702 140.43965495 189.41938537 145.21987543 192 150 C182.90964403 150.67733186 173.828121 151.18951034 164.71790409 151.50255299 C160.48418334 151.65299846 156.26786395 151.85575361 152.04418945 152.18774414 C125.55099023 154.21579484 125.55099023 154.21579484 118.35651016 148.75182343 C112.19725967 142.66071175 108.63774072 134.55469381 105.41302872 126.64041996 C102.68267731 119.94604734 98.9723168 114.06915146 95.0625 108 C93.92528687 106.16858708 92.79060545 104.33559571 91.66015625 102.5 C91.19230713 101.7471875 90.72445801 100.994375 90.24243164 100.21875 C89 98 89 98 87 93 C79.41 93 71.82 93 64 93 C64 111.81 64 130.62 64 150 C42.88 150 21.76 150 0 150 C0 100.5 0 51 0 0 Z M64 40 C64 45.28 64 50.56 64 56 C71.49306055 56.07404585 78.98590909 56.1285532 86.47924805 56.16479492 C89.02941598 56.17990005 91.57955786 56.20038533 94.12963867 56.22631836 C97.79091819 56.26262504 101.45185485 56.27970915 105.11328125 56.29296875 C106.82902092 56.31619453 106.82902092 56.31619453 108.579422 56.33988953 C110.17073189 56.34022942 110.17073189 56.34022942 111.79418945 56.34057617 C112.72906693 56.34723801 113.6639444 56.35389984 114.62715149 56.36076355 C117.44108224 55.93293866 118.31954236 55.25727661 120 53 C120.47335483 50.85913556 120.47335483 50.85913556 120.375 48.5625 C120.38273437 47.80066406 120.39046875 47.03882813 120.3984375 46.25390625 C119.89017437 43.37873149 119.01282354 42.11014257 117 40 C114.56788334 39.42133684 114.56788334 39.42133684 111.79418945 39.54589844 C110.73331619 39.54620056 109.67244293 39.54650269 108.579422 39.54681396 C106.86368233 39.57778168 106.86368233 39.57778168 105.11328125 39.609375 C103.94113571 39.61503479 102.76899017 39.62069458 101.56132507 39.62652588 C97.81130422 39.64894678 94.06223289 39.69915616 90.3125 39.75 C87.77280024 39.7700575 85.23308553 39.78830957 82.69335938 39.8046875 C76.46187278 39.84883069 70.23109746 39.91789969 64 40 Z " fill="#221E1F" transform="translate(1085,268)"/>
<path d="M0 0 C38.09532357 -0.16121214 38.09532357 -0.16121214 54.10742188 -0.1953125 C65.14615343 -0.21901062 76.18476251 -0.24681019 87.22338867 -0.30175781 C95.26418493 -0.34176371 103.30488144 -0.36746543 111.34577447 -0.37635398 C115.59908773 -0.38154557 119.85211576 -0.39365272 124.10533714 -0.42292023 C128.1182557 -0.45030736 132.1307747 -0.45839861 136.14377785 -0.45243073 C137.6073792 -0.45352065 139.07099556 -0.46133486 140.53451538 -0.4768219 C154.11716571 -0.61336157 166.72680814 1.60990166 177.0859375 10.86328125 C185.46316029 19.38064346 188.62567112 29.74570615 189.0703125 41.515625 C188.82968148 53.44022896 186.19035602 64.3379591 179 74 C178.46375 74.825 177.9275 75.65 177.375 76.5 C171.18103389 83.01996433 163.46005076 85.64987107 155 88 C155.42595459 88.70157227 155.85190918 89.40314453 156.29077148 90.12597656 C156.89477783 91.12081055 157.49878418 92.11564453 158.12109375 93.140625 C158.80155762 94.26130371 159.48202148 95.38198242 160.18310547 96.53662109 C161.69945792 99.03409874 163.21535856 101.53184989 164.73095703 104.02978516 C168.35603772 110.00364901 171.98321716 115.97617335 175.62348938 121.9407959 C177.17051233 124.47588423 178.71582262 127.01201449 180.26101685 129.54821777 C180.99882944 130.75813098 181.73748632 131.96752977 182.47702026 133.1763916 C183.51549124 134.87408434 184.55077395 136.57372605 185.5859375 138.2734375 C186.1742334 139.23685059 186.7625293 140.20026367 187.36865234 141.19287109 C189.04278757 144.07362638 190.52237946 147.01466528 192 150 C182.90964403 150.67733186 173.828121 151.18951034 164.71790409 151.50255299 C160.48418334 151.65299846 156.26786395 151.85575361 152.04418945 152.18774414 C125.57490316 154.21367624 125.57490316 154.21367624 118.36454391 148.76387405 C111.64575531 142.14269347 107.97910577 133.05713013 104.47000122 124.46292114 C102.65353194 120.18381593 100.41076667 116.40663919 97.83984375 112.55078125 C97.17275391 111.48021484 96.50566406 110.40964844 95.81835938 109.30664062 C94.4981565 107.20500926 93.17783351 105.10345334 91.85742188 103.00195312 C91.21224609 101.96619141 90.56707031 100.93042969 89.90234375 99.86328125 C89.34023193 98.96907471 88.77812012 98.07486816 88.19897461 97.15356445 C87 95 87 95 87 93 C79.41 93 71.82 93 64 93 C64 111.81 64 130.62 64 150 C42.88 150 21.76 150 0 150 C0 100.5 0 51 0 0 Z M64 39 C64 44.61 64 50.22 64 56 C71.49306055 56.07404585 78.98590909 56.1285532 86.47924805 56.16479492 C89.02941598 56.17990005 91.57955786 56.20038533 94.12963867 56.22631836 C97.79091819 56.26262504 101.45185485 56.27970915 105.11328125 56.29296875 C106.82902092 56.31619453 106.82902092 56.31619453 108.579422 56.33988953 C110.17073189 56.34022942 110.17073189 56.34022942 111.79418945 56.34057617 C112.72906693 56.34723801 113.6639444 56.35389984 114.62715149 56.36076355 C117.45887256 55.93023385 118.30834704 55.27134829 120 53 C121.18666376 49.27048533 121.14880245 46.77285154 119.75 43.1875 C118.32130338 39.72965222 118.32130338 39.72965222 115 39 C113.32779029 38.91245202 111.65227801 38.88234005 109.9777832 38.88647461 C108.95695145 38.88655014 107.93611969 38.88662567 106.88435364 38.88670349 C105.23423531 38.89444542 105.23423531 38.89444542 103.55078125 38.90234375 C102.4230278 38.9037587 101.29527435 38.90517365 100.13334656 38.90663147 C96.52637088 38.9122353 92.91945696 38.92478847 89.3125 38.9375 C86.86914152 38.94251451 84.42578207 38.9470775 81.98242188 38.95117188 C75.98825741 38.96220597 69.99413918 38.97947321 64 39 Z " fill="#221E1F" transform="translate(229,268)"/>
<path d="M0 0 C57.75 0 115.5 0 175 0 C175 13.2 175 26.4 175 40 C138.37 40 101.74 40 64 40 C64 44.95 64 49.9 64 55 C92.05 55 120.1 55 149 55 C149 67.21 149 79.42 149 92 C120.95 92 92.9 92 64 92 C64 97.28 64 102.56 64 108 C100.63 108 137.26 108 175 108 C175 121.86 175 135.72 175 150 C117.25 150 59.5 150 0 150 C0 100.5 0 51 0 0 Z " fill="#231E20" transform="translate(876,268)"/>
<path d="M0 0 C20.13 0 40.26 0 61 0 C61.33 14.85 61.66 29.7 62 45 C64.28550781 41.7515625 66.57101562 38.503125 68.92578125 35.15625 C72.2502119 30.81642744 75.73007463 26.62739549 79.3125 22.5 C80.00764017 21.69828558 80.00764017 21.69828558 80.71682358 20.88037491 C93.53905002 6.34155539 105.98178991 -1.62541144 125.62719154 -2.85936356 C134.2047657 -3.24851659 142.73527377 -3.16128589 151.3125 -2.8125 C152.74346701 -2.75471878 152.74346701 -2.75471878 154.20334244 -2.69577026 C166.17239282 -2.17698995 178.08776437 -1.26647157 190 0 C184.5187173 5.49215639 184.5187173 5.49215639 181.73046875 8.0859375 C181.15586914 8.62057617 180.58126953 9.15521484 179.98925781 9.70605469 C179.39467773 10.25680664 178.80009766 10.80755859 178.1875 11.375 C177.25502441 12.2397998 177.25502441 12.2397998 176.30371094 13.12207031 C172.56009272 16.58418408 168.78198774 19.99589093 164.921875 23.328125 C162.58894926 25.35758073 160.29488755 27.427647 158 29.5 C155.01937279 32.18983431 152.02754767 34.86310364 149 37.5 C139.78840892 45.52285419 139.78840892 45.52285419 131 54 C131.3403125 54.48017578 131.680625 54.96035156 132.03125 55.45507812 C139.2539295 65.66479662 146.34300533 75.94872709 153.25 86.375 C158.13780947 93.75291278 163.1133344 101.01923441 168.30859375 108.18359375 C172.75670135 114.41163967 176.9242767 120.83693021 181.15234375 127.21508789 C185.54721423 133.84054457 190.00754253 140.40806862 194.59375 146.90234375 C196 149 196 149 196 150 C186.3095557 150.70150681 176.62803808 151.23095345 166.91758347 151.55436516 C162.40474378 151.70981066 157.90945009 151.91924437 153.40673828 152.26318359 C125.24283041 154.35773095 125.24283041 154.35773095 117.1699295 148.72254181 C109.64381611 141.96516736 105.07628229 132.58338487 100.76733398 123.59124756 C98.63825676 119.16556454 95.99959462 115.17594536 93.1796875 111.1640625 C92.42949286 110.0339616 91.68315178 108.9012894 90.94140625 107.765625 C90.25949219 106.72921875 89.57757812 105.6928125 88.875 104.625 C88.50133301 104.05168945 88.12766602 103.47837891 87.74267578 102.88769531 C86.64465837 101.20484901 85.53737363 99.52806043 84.4296875 97.8515625 C83.81335449 96.91135254 83.19702148 95.97114258 82.56201172 95.00244141 C82.04654785 94.34163574 81.53108398 93.68083008 81 93 C78.25845881 93 77.45781154 94.09078611 75.375 95.84375 C74.66859375 96.43027344 73.9621875 97.01679688 73.234375 97.62109375 C72.49703125 98.24113281 71.7596875 98.86117187 71 99.5 C69.54539162 100.72319341 68.08722719 101.9421745 66.625 103.15625 C65.65433594 103.97319336 65.65433594 103.97319336 64.6640625 104.80664062 C63 106 63 106 61 106 C61 120.52 61 135.04 61 150 C40.87 150 20.74 150 0 150 C0 100.5 0 51 0 0 Z " fill="#221E1F" transform="translate(662,268)"/>
<path d="M0 0 C21.45 0 42.9 0 65 0 C65.05607422 10.30798828 65.05607422 10.30798828 65.11328125 20.82421875 C65.14355544 25.17645744 65.17469973 29.52865495 65.20898438 33.88085938 C65.26332524 40.78961121 65.31443465 47.6982816 65.34643555 54.60717773 C65.37243543 60.17697959 65.41281467 65.74650822 65.46318626 71.31614113 C65.47987736 73.44157324 65.49137764 75.56705263 65.49761391 77.69254112 C65.50723044 80.66861014 65.53526096 83.6439766 65.56762695 86.61987305 C65.56619186 87.49956757 65.56475677 88.37926208 65.5632782 89.28561401 C65.65572309 95.29197047 66.81982507 98.6088404 70.9375 103.125 C79.51140881 108.37433192 89.85863378 109.03468786 99.5625 107.3125 C104.21192901 106.16237809 108.36973843 104.15145009 112 101 C113.67008667 98.18445347 114.25314589 96.09522937 114.2784729 92.83648682 C114.28963638 92.01481522 114.30079987 91.19314362 114.31230164 90.34657288 C114.31446182 89.45393234 114.31662201 88.56129181 114.31884766 87.64160156 C114.32889328 86.69492111 114.3389389 85.74824066 114.34928894 84.77287292 C114.38016627 81.64546309 114.39716885 78.51813905 114.4140625 75.390625 C114.43277047 73.22157043 114.4523436 71.05252316 114.4727478 68.88348389 C114.52411409 63.17564192 114.56371584 57.46777635 114.60089111 51.75982666 C114.64793775 44.91066993 114.70955489 38.06163074 114.76873779 31.21257019 C114.85700483 20.80842745 114.92673023 10.40430787 115 0 C135.46 0 155.92 0 177 0 C177.16043524 24.31485153 177.16043524 24.31485153 177.1953125 34.765625 C177.21912395 41.86665973 177.24713949 48.96748604 177.30175781 56.06835938 C177.34556438 61.8001838 177.36920996 67.53178437 177.37950897 73.26376343 C177.38683833 75.43878701 177.40114874 77.61379984 177.42292023 79.78872681 C177.59126515 97.32053296 177.06692131 115.44098341 164.91796875 129.390625 C144.67982387 149.12533344 113.03385527 152.528722 86.09838867 152.28320312 C60.45294811 151.75897577 30.77114067 147.58902488 11.23828125 129.35546875 C2.00312077 119.4224372 -0.32634568 107.45090659 -0.22705078 94.33959961 C-0.22734283 93.31416046 -0.22763489 92.28872131 -0.22793579 91.23220825 C-0.22655214 87.87216471 -0.21103655 84.51234814 -0.1953125 81.15234375 C-0.19157894 78.81108216 -0.18873359 76.46981901 -0.18673706 74.1285553 C-0.17912764 67.98832836 -0.15950234 61.84819713 -0.1373291 55.70800781 C-0.11320072 48.3290225 -0.10407688 40.95000505 -0.09242249 33.57099152 C-0.07307636 22.38059459 -0.03473484 11.19040738 0 0 Z " fill="#221E1F" transform="translate(446,268)"/>
</svg>
