<?xml version="1.0" encoding="UTF-8"?>
<svg version="1.1" xmlns="http://www.w3.org/2000/svg" width="1280" height="1280">
<path d="M0 0 C1.58882627 -0.00269466 3.17765126 -0.00626322 4.76647383 -0.01062447 C9.1407437 -0.02008256 13.5149303 -0.01708177 17.88920426 -0.01206893 C22.64511019 -0.00880376 27.40099826 -0.01708363 32.1568985 -0.02388728 C40.49521902 -0.03419975 48.83351631 -0.0370289 57.17184258 -0.03497505 C69.57151034 -0.03192828 81.97115235 -0.04024192 94.37081511 -0.0507243 C117.80514017 -0.07008119 141.23945649 -0.07569317 164.67378861 -0.07683842 C182.77081359 -0.07775705 200.86783514 -0.08187136 218.96485901 -0.08823967 C224.17169634 -0.09003473 229.37853368 -0.09181436 234.58537102 -0.09358943 C235.87976716 -0.09403152 237.17416331 -0.09447362 238.50778358 -0.09492911 C274.9250244 -0.10724032 311.34226334 -0.11514175 347.75950623 -0.11424255 C349.14682497 -0.114211 350.53414372 -0.11417952 351.92146246 -0.11414814 C358.18502268 -0.11400137 364.4485829 -0.11382503 370.71214312 -0.11364037 C373.50519239 -0.11355812 376.29824165 -0.11347783 379.09129091 -0.11339774 C380.48926277 -0.11335695 381.88723462 -0.11331491 383.28520648 -0.11327162 C427.48100929 -0.11191143 471.67678003 -0.12654056 515.87257385 -0.15435219 C527.00587963 -0.16135437 538.13918543 -0.16829336 549.27249146 -0.17488098 C549.95803656 -0.17528673 550.64358167 -0.17569248 551.34990087 -0.17611052 C572.48452835 -0.18854364 593.6191532 -0.19607226 614.75378418 -0.19859695 C615.41749303 -0.19867686 616.08120187 -0.19875676 616.76502311 -0.19883908 C631.99005026 -0.20062235 647.21507725 -0.20100508 662.44010448 -0.20042574 C667.64945666 -0.20027648 672.85880883 -0.20017907 678.06816101 -0.20011711 C679.99220505 -0.20008215 679.99220505 -0.20008215 681.95511866 -0.20004648 C702.60126497 -0.19998492 723.24738421 -0.21275933 743.89352246 -0.22998164 C764.64355803 -0.24693261 785.393554 -0.24891617 806.14359266 -0.235763 C818.47122021 -0.22837006 830.79872749 -0.23204214 843.12634232 -0.25164768 C851.36373184 -0.26364134 859.6010342 -0.26106337 867.83841972 -0.24670668 C872.5300429 -0.23893854 877.22143322 -0.23740681 881.91304004 -0.25362138 C886.18882841 -0.26826914 890.46419183 -0.26420185 894.73996186 -0.24577365 C896.26976963 -0.24235645 897.79961143 -0.24550385 899.32938439 -0.25637607 C932.77512408 -0.47798512 963.43928083 17.49869098 988.55177307 38.25726891 C989.34913879 38.9081649 989.34913879 38.9081649 990.16261292 39.57221031 C996.96403319 45.13168664 1003.49573646 50.96150977 1009.92677307 56.94476891 C1010.58081116 57.55030602 1011.23484924 58.15584312 1011.90870667 58.77972984 C1015.84054705 62.47616068 1019.46148691 66.33362287 1022.97511292 70.42889977 C1024.97541313 72.74854181 1027.0770151 74.96516724 1029.17677307 77.19476891 C1035.24541962 83.85367895 1040.65136495 90.98344179 1046.0249176 98.20844078 C1047.37520838 100.02034359 1048.74069801 101.81939503 1050.11036682 103.61664391 C1066.31149759 125.43097434 1085.66256516 155.63663095 1085.68057424 183.82599795 C1085.68234925 184.47653983 1085.68412426 185.12708171 1085.68595306 185.79733699 C1085.69069683 187.98464796 1085.68831913 190.1718931 1085.68599415 192.35920715 C1085.68794712 193.94703883 1085.69033598 195.53487002 1085.69312212 197.12270045 C1085.69953218 201.50819709 1085.69968294 205.89367542 1085.69884471 210.27917585 C1085.69901401 215.04209993 1085.70491796 219.80501741 1085.71008557 224.56793821 C1085.71942095 234.02484733 1085.7233352 243.48175177 1085.72560454 252.93866492 C1085.72856422 264.26239751 1085.73726032 275.58612387 1085.74601882 286.90985319 C1085.76687509 314.28428612 1085.77733533 341.65872014 1085.78614842 369.03315916 C1085.79035371 381.98229542 1085.7955759 394.93143122 1085.80083295 407.88056709 C1085.81844474 451.50745278 1085.83349701 495.13433847 1085.84080319 538.76122714 C1085.84138716 542.2391992 1085.84198442 545.71717125 1085.84258081 549.1951433 C1085.84269893 549.88505775 1085.84281705 550.5749722 1085.84293875 551.28579314 C1085.84413612 558.27551147 1085.84534488 565.2652298 1085.84657128 572.25494812 C1085.84681651 573.65639947 1085.84706037 575.05785081 1085.84730285 576.45930215 C1085.85508929 621.44993972 1085.87746433 666.44055118 1085.90997927 711.43117734 C1085.93333327 743.75677909 1085.95488081 776.08237564 1085.96198559 808.40798569 C1085.96213261 809.07316715 1085.96227963 809.73834862 1085.96243111 810.4236871 C1085.9657593 825.68354393 1085.96774086 840.94340076 1085.96879739 856.20325792 C1085.96921493 861.42478713 1085.96969449 866.64631633 1085.97022057 871.86784554 C1085.97034376 873.15354509 1085.97046695 874.43924465 1085.97059387 875.7639048 C1085.9729256 896.45146814 1085.98858418 917.13900085 1086.00906241 937.82655327 C1086.02932377 958.62517321 1086.03479625 979.42375637 1086.02529178 1000.22238435 C1086.02007785 1012.57602952 1086.02594927 1024.92955221 1086.04782645 1037.28317974 C1086.06134534 1045.54184318 1086.06024786 1053.80042242 1086.04742449 1062.05908671 C1086.04053515 1066.76045624 1086.03983324 1071.46159181 1086.05698458 1076.16294034 C1086.16254089 1107.02420465 1082.16901262 1131.80949762 1067.55177307 1159.25726891 C1067.24014221 1159.85249352 1066.92851135 1160.44771812 1066.60743713 1161.06097984 C1054.26752506 1184.47416751 1034.92543698 1207.4026924 1014.55177307 1224.25726891 C1013.08610901 1225.55471031 1013.08610901 1225.55471031 1011.59083557 1226.87836266 C988.46095363 1247.32843889 961.52594884 1264.70669533 932.17677307 1274.69476891 C931.52499084 1274.91761559 930.87320862 1275.14046227 930.20167542 1275.37006187 C917.64019487 1279.37602211 905.40077904 1280.70138436 892.28182602 1280.64037895 C890.68915816 1280.64412437 889.09649296 1280.64917891 887.50383288 1280.65540779 C883.15147925 1280.66866831 878.79931942 1280.66346409 874.44696103 1280.65507429 C869.70263201 1280.64924408 864.95833909 1280.66083102 860.21402001 1280.67013597 C851.90679529 1280.68402521 843.59962503 1280.68678864 835.29239082 1280.68217659 C822.93891662 1280.67533598 810.58549742 1280.68561296 798.23203086 1280.69913415 C774.8838227 1280.72403282 751.53563744 1280.72856372 728.18741813 1280.72666818 C710.15685093 1280.7252947 692.12629166 1280.72911475 674.09572601 1280.73659325 C671.5045727 1280.73764359 668.91341938 1280.7386912 666.32226606 1280.73973611 C664.39288661 1280.74051513 664.39288661 1280.74051513 662.42452981 1280.74130988 C660.49160568 1280.74209009 660.49160568 1280.74209009 658.51963258 1280.74288607 C657.22884711 1280.74341006 655.93806164 1280.74393405 654.60816145 1280.74447392 C618.30772683 1280.75905559 582.0072968 1280.76736503 545.70685959 1280.76272392 C545.02294783 1280.76263806 544.33903607 1280.76255219 543.63439971 1280.76246373 C536.00848947 1280.76150437 528.38257924 1280.76046617 520.75666901 1280.75940484 C518.66955851 1280.75911532 516.582448 1280.75882584 514.4953375 1280.75853643 C513.10278334 1280.75834243 511.71022918 1280.75814694 510.31767503 1280.75794994 C466.28451999 1280.75173444 422.25141994 1280.76659387 378.21827698 1280.79926109 C367.12300505 1280.80748471 356.02773307 1280.81563484 344.93246078 1280.82336235 C344.2492283 1280.82383855 343.56599582 1280.82431474 342.86205933 1280.82480537 C321.79560403 1280.83939752 300.72915328 1280.84783767 279.66269302 1280.8499279 C279.00104649 1280.84999422 278.33939995 1280.85006054 277.65770351 1280.85012886 C262.47945183 1280.85158564 247.30120055 1280.85126446 232.12294888 1280.84972239 C226.92966032 1280.84925241 221.73637176 1280.84884216 216.54308319 1280.84847069 C214.62503026 1280.84831711 214.62503026 1280.84831711 212.66822879 1280.84816043 C193.37173227 1280.84696599 174.07527236 1280.85892765 154.77878571 1280.87761497 C132.8312343 1280.89885951 110.88375965 1280.90269403 88.93620482 1280.88331538 C76.65802776 1280.87299504 64.38003796 1280.87644447 52.10187786 1280.89984624 C43.89386667 1280.91410192 35.68599372 1280.91008387 27.4779918 1280.89140047 C22.80569707 1280.88127307 18.13376623 1280.8788569 13.46149454 1280.89872116 C-22.02899704 1281.03973433 -22.02899704 1281.03973433 -37.44822693 1275.25726891 C-38.41846117 1274.91106546 -39.38869542 1274.56486201 -40.3883307 1274.20816755 C-42.50927562 1273.42041769 -44.53100078 1272.54141674 -46.57322693 1271.56976891 C-47.66776184 1271.06340904 -47.66776184 1271.06340904 -48.78440857 1270.54681969 C-69.26514825 1260.84738816 -87.5894977 1247.31182781 -104.44822693 1232.25726891 C-104.97045837 1231.79143394 -105.49268982 1231.32559898 -106.03074646 1230.84564781 C-117.41803426 1220.62646419 -128.61051382 1209.99194015 -138.44822693 1198.25726891 C-139.2293988 1197.36523766 -140.01057068 1196.47320641 -140.81541443 1195.55414391 C-163.44575703 1169.5812544 -194.55385809 1130.84884962 -194.5770281 1094.70958531 C-194.57880311 1094.06132421 -194.58057811 1093.41306312 -194.58240691 1092.74515774 C-194.5871505 1090.56562647 -194.58477303 1088.38616126 -194.58244801 1086.20662689 C-194.58440098 1084.62440643 -194.58678985 1083.04218647 -194.58957598 1081.45996726 C-194.59598589 1077.09007777 -194.59613681 1072.72020664 -194.59529857 1068.35031334 C-194.59546787 1063.60436688 -194.60137182 1058.85842703 -194.60653943 1054.11248386 C-194.61587466 1044.68946479 -194.61978903 1035.26645043 -194.62205839 1025.84342731 C-194.62501807 1014.56044938 -194.63371412 1003.2774777 -194.64247267 991.99450305 C-194.66332788 964.72030203 -194.67378862 937.44609993 -194.68260228 910.17189281 C-194.68680732 897.27191324 -194.6920295 884.37193414 -194.69728681 871.47195496 C-194.71489763 828.01545101 -194.72995054 784.55894705 -194.73725705 741.10244011 C-194.73784102 737.63818452 -194.73843828 734.17392893 -194.73903466 730.70967334 C-194.73915278 730.02247721 -194.7392709 729.33528108 -194.7393926 728.62726083 C-194.74058998 721.66503654 -194.74179875 714.70281225 -194.74302514 707.74058797 C-194.74327037 706.3446451 -194.74351423 704.94870223 -194.7437567 703.55275936 C-194.75154498 658.72847992 -194.77392471 613.90422666 -194.80643313 569.07995866 C-194.82978282 536.87336118 -194.8513325 504.66676891 -194.85843945 472.46016312 C-194.85858647 471.79763124 -194.85873349 471.13509937 -194.85888496 470.45249078 C-194.86221291 455.25459197 -194.86419465 440.05669322 -194.86525124 424.85879409 C-194.86566879 419.65868115 -194.86614835 414.45856821 -194.86667442 409.25845528 C-194.86679761 407.97801863 -194.86692081 406.69758198 -194.86704773 405.37834422 C-194.86938066 384.76437752 -194.88504587 364.15044153 -194.90551627 343.53648578 C-194.92576358 322.81858994 -194.93125674 302.10073102 -194.92174564 281.38282712 C-194.91652641 269.07277645 -194.92242818 256.76284859 -194.94428031 244.45281558 C-194.95777725 236.22831646 -194.95672112 228.00390198 -194.94387835 219.77940205 C-194.93697444 215.09426456 -194.9363371 210.40936205 -194.95343844 205.72424544 C-194.96889283 201.45548039 -194.96566804 197.18713819 -194.94802816 192.91838533 C-194.94489828 191.38998923 -194.94835839 189.86156036 -194.9595199 188.33320181 C-195.21928621 150.25930998 -170.64997954 115.55298383 -145.69822693 88.69086266 C-143.80876642 86.64722742 -141.99480775 84.56922573 -140.19822693 82.44476891 C-132.34244683 73.41342076 -123.61648439 64.94343964 -114.44822693 57.25726891 C-113.11018005 56.08551109 -113.11018005 56.08551109 -111.74510193 54.89008141 C-86.27509533 32.69790385 -56.12133083 11.86903915 -23.44822693 2.25726891 C-22.37071136 1.91017762 -21.29319578 1.56308633 -20.18302822 1.20547712 C-13.58883637 -0.41060141 -6.74498444 -0.01970418 0 0 Z " fill="#734F96" transform="translate(194.44822692871094,-0.25726890563964844)"/>
<path d="M0 0 C307.89 0 615.78 0 933 0 C933 137.28 933 274.56 933 416 C849 416 849 416 823 415 C821.75137428 412.50274855 821.63713783 410.440269 821.3515625 407.65625 C821.23506348 406.5307373 821.11856445 405.40522461 820.99853516 404.24560547 C820.87526855 403.00955566 820.75200195 401.77350586 820.625 400.5 C820.49270996 399.20336426 820.36041992 397.90672852 820.22412109 396.57080078 C819.39628514 388.38228673 818.66308603 380.18850426 817.97265625 371.98730469 C808.29434794 245.78972054 808.29434794 245.78972054 742.7734375 142.18359375 C705.74763302 113.03229135 657.53650005 112.28155979 612.3515625 110.41796875 C611.57876214 110.38565902 610.80596177 110.3533493 610.00974321 110.32006049 C561.15404472 108.28975255 512.26488667 108.4344977 463.375 108.3125 C431.24125 108.209375 399.1075 108.10625 366 108 C366 211.29 366 314.58 366 421 C400.71947115 420.42623909 400.71947115 420.42623909 435 417 C436.83159668 416.73678955 436.83159668 416.73678955 438.70019531 416.46826172 C454.80026078 414.1139877 470.58078338 411.28482597 486 406 C486.68497559 405.76700195 487.36995117 405.53400391 488.07568359 405.29394531 C497.04995441 402.13546529 503.44397435 397.84306705 510 391 C510.68449219 390.33484375 511.36898438 389.6696875 512.07421875 388.984375 C523.43317995 377.29067034 529.87784862 360.81859534 535.5625 345.8125 C535.84367676 345.08313232 536.12485352 344.35376465 536.41455078 343.60229492 C541.12239278 330.86866412 543.57857295 317.6783894 545.52383423 304.29110718 C545.88522025 301.80468215 546.25618485 299.31984476 546.62963867 296.83520508 C547.1541771 293.34411521 547.67587186 289.85261898 548.19580078 286.36083984 C549.39905798 278.30971757 550.65121199 270.26626486 551.91485596 262.22442627 C552.3074711 259.71958382 552.69559419 257.21407213 553.08349609 254.70849609 C553.32233697 253.18453045 553.56141865 251.66060253 553.80078125 250.13671875 C553.90780869 249.4396431 554.01483612 248.74256744 554.12510681 248.02436829 C554.88583682 243.22832635 554.88583682 243.22832635 556 241 C590.98 241 625.96 241 662 241 C662 404.68 662 568.36 662 737 C625.7 737 589.4 737 552 737 C551.67 727.43 551.34 717.86 551 708 C548.87673516 686.1882794 545.79906337 664.79940812 541.25 643.375 C541.07769867 642.55904358 540.90539734 641.74308716 540.72787476 640.90240479 C531.45958611 595.05541295 531.45958611 595.05541295 502.66015625 559.7109375 C463.4283674 534.478157 410.10194904 535.0631552 365 531 C365.10399864 532.40967293 365.10399864 532.40967293 365.21009827 533.8478241 C365.89212066 543.56401963 366.16951376 553.24224161 366.23007011 562.98065758 C366.24687252 565.67569258 366.26915133 568.3706421 366.29249573 571.06562805 C366.32647939 575.04668886 366.35828773 579.02775836 366.38842773 583.0088501 C366.4731489 594.07242712 366.57785557 605.13582568 366.68359375 616.19921875 C366.69489697 617.38937088 366.70620018 618.57952301 366.71784592 619.80574036 C367.01810729 651.10599408 367.45249928 682.40437359 367.90122849 713.70279449 C367.97771506 719.04416559 368.05267152 724.38555662 368.12692261 729.72695923 C368.1336304 783.47684815 368.1336304 783.47684815 371.375 837.0625 C371.4884375 838.31224609 371.601875 839.56199219 371.71875 840.84960938 C372.99600575 853.66972427 376.17968259 863.87909358 385.875 872.8125 C399.91071573 884.21980454 419.32460601 884.89751773 436.625 886.625 C438.58213763 886.82971471 440.53916978 887.03544033 442.49609375 887.2421875 C447.37820612 887.75394941 452.26230257 888.24208038 457.1479187 888.71914673 C459.90160431 888.99031067 462.65400269 889.27243182 465.40649414 889.55541992 C479.98205829 891.01281835 494.55098357 891.59061962 509.1875 892.0625 C512.71807891 892.17837912 516.24855268 892.29611992 519.77888489 892.41929626 C521.95117063 892.49495376 524.12360825 892.56640055 526.29618835 892.6330719 C527.26603165 892.66658249 528.23587494 892.70009308 529.23510742 892.73461914 C530.08586349 892.7618959 530.93661957 892.78917267 531.81315613 892.817276 C534 893 534 893 537 894 C537 929.97 537 965.94 537 1003 C359.79 1003 182.58 1003 0 1003 C0 967.03 0 931.06 0 894 C3.60943545 893.09764114 6.64844006 892.76199854 10.34375 892.56689453 C11.63450439 892.49657013 12.92525879 892.42624573 14.25512695 892.35379028 C14.94498688 892.31794956 15.6348468 892.28210884 16.34561157 892.24518204 C18.53818921 892.13082061 20.73040575 892.01096204 22.92260742 891.88961792 C29.15713584 891.54537544 35.39210258 891.20959936 41.62744141 890.88037109 C61.50419272 889.82715681 81.23351985 888.41564861 101 886 C101.96201828 885.88245865 102.92403656 885.7649173 103.91520691 885.64381409 C116.45573913 884.08507145 131.15033865 881.98423332 140 872 C149.98413249 855.8695663 150.46431802 836.40014732 151.60009766 818.00390625 C151.66548209 816.94517366 151.73086653 815.88644108 151.79823232 814.79562569 C153.67299666 783.25420886 153.44032585 751.66560691 153.40550883 720.08152825 C153.39871011 713.65032116 153.39878239 707.21914229 153.40302086 700.78793335 C153.40394013 699.38608198 153.40394013 699.38608198 153.40487796 697.95591038 C153.40615244 696.05169049 153.40743898 694.14747061 153.4087374 692.24325073 C153.42076098 673.33456803 153.41063593 654.42593878 153.39194566 635.51726437 C153.37876138 622.11644548 153.37077904 608.71563514 153.36686935 595.3148104 C153.33849105 500.88457108 153.18297884 406.45878706 151.5625 295 C151.54566634 293.89391388 151.52883268 292.78782776 151.51148891 291.64822388 C151.09689134 264.50899671 150.62595861 237.37105556 150.08426666 210.23406982 C150.00480632 206.25259158 149.92737565 202.27107558 149.85028076 198.28955078 C149.72719241 191.96374968 149.59788865 185.63809873 149.46484375 179.3125 C149.4478348 178.47618042 149.43082584 177.63986084 149.41330147 176.77819824 C149.30451654 171.51774117 149.16616258 166.25894998 149 161 C148.95813505 159.60728378 148.95813505 159.60728378 148.91542435 158.18643188 C148.8211018 155.19932121 148.71231433 152.21304079 148.59985352 149.2265625 C148.55698542 147.83290215 148.55698542 147.83290215 148.5132513 146.41108704 C148.13906902 137.30660984 145.85081154 131.43415915 139.1875 125.125 C113.80280875 104.9401524 71.49776817 109.36326405 41.1875 109.25 C20.7996875 109.12625 20.7996875 109.12625 0 109 C0 73.03 0 37.06 0 0 Z " fill="#FEFEFE" transform="translate(176,137)"/>
</svg>
