<?xml version="1.0" encoding="UTF-8"?>
<svg version="1.1" xmlns="http://www.w3.org/2000/svg" width="1280" height="904">
<path d="M0 0 C28.78203412 -0.25104181 57.56393894 -0.44565842 86.34685272 -0.56171862 C89.74637367 -0.57547608 93.14589245 -0.58971366 96.54541016 -0.60424805 C97.22218123 -0.60713346 97.8989523 -0.61001888 98.59623158 -0.61299173 C109.548694 -0.66083206 120.50052009 -0.74754746 131.45260525 -0.84868076 C142.69394808 -0.95161786 153.93497355 -1.01183769 165.17681122 -1.03497344 C171.49007064 -1.04931682 177.80188786 -1.08302952 184.11468506 -1.16303062 C190.0576637 -1.23773442 195.99860731 -1.26072079 201.94201088 -1.24418449 C204.1221657 -1.24720916 206.30238899 -1.2690722 208.48213768 -1.31126022 C224.9545569 -1.61442016 224.9545569 -1.61442016 230.00391102 2.37091637 C232.07919986 5.1746299 233.55003137 7.83724424 235 11 C236.01069407 12.55240273 237.04315647 14.09117934 238.11010742 15.60546875 C239.11119785 17.13108562 240.10957092 18.65848843 241.10546875 20.1875 C242.2499644 21.93296605 243.3944973 23.67840768 244.5390625 25.42382812 C245.42899902 26.78423218 245.42899902 26.78423218 246.33691406 28.17211914 C256.93427631 44.36595118 267.64769748 60.47603427 278.5 76.5 C288.88891463 91.84393012 299.14162415 107.27104022 309.3125 122.76025391 C318.27704863 136.40752338 327.34624583 149.97897787 336.5 163.5 C346.8881986 178.84442158 357.14161684 194.2710291 367.3125 209.76025391 C376.27704863 223.40752338 385.34624583 236.97897787 394.5 250.5 C404.8881986 265.84442158 415.14161684 281.2710291 425.3125 296.76025391 C434.27704863 310.40752338 443.34624583 323.97897787 452.5 337.5 C462.8881986 352.84442158 473.14161684 368.2710291 483.3125 383.76025391 C492.27704863 397.40752338 501.34624583 410.97897787 510.5 424.5 C520.8881986 439.84442158 531.14161684 455.2710291 541.3125 470.76025391 C550.27704863 484.40752338 559.34624583 497.97897787 568.5 511.5 C578.8881986 526.84442158 589.14161684 542.2710291 599.3125 557.76025391 C608.27704863 571.40752338 617.34624583 584.97897787 626.5 598.5 C636.8881986 613.84442158 647.14161684 629.2710291 657.3125 644.76025391 C666.27704863 658.40752338 675.34624583 671.97897787 684.5 685.5 C694.8881986 700.84442158 705.14161684 716.2710291 715.3125 731.76025391 C724.27704863 745.40752338 733.34624583 758.97897787 742.5 772.5 C752.27098573 786.93273566 761.93327367 801.43107227 771.5 816 C783.07740194 833.63019514 794.81007642 851.15012374 806.63430786 868.6156311 C808.8435202 871.88034302 811.049711 875.14708572 813.25457764 878.41473389 C814.4846809 880.23672514 815.71612973 882.05780829 816.94854736 883.87823486 C818.9195583 886.79202557 820.88424666 889.70998969 822.84765625 892.62890625 C823.46305771 893.53632065 824.07845917 894.44373505 824.71250916 895.37864685 C825.27410233 896.21605911 825.8356955 897.05347137 826.41430664 897.91625977 C826.91450821 898.65787857 827.41470978 899.39949738 827.93006897 900.16358948 C829 902 829 902 829 904 C800.21796588 904.25104181 771.43606106 904.44565842 742.65314728 904.56171862 C739.25362633 904.57547608 735.85410755 904.58971366 732.45458984 904.60424805 C731.43943324 904.60857617 731.43943324 904.60857617 730.40376842 904.61299173 C719.451306 904.66083206 708.49947991 904.74754746 697.54739475 904.84868076 C686.30605192 904.95161786 675.06502645 905.01183769 663.82318878 905.03497344 C657.50992936 905.04931682 651.19811214 905.08302952 644.88531494 905.16303062 C638.9423363 905.23773442 633.00139269 905.26072079 627.05798912 905.24418449 C624.8778343 905.24720916 622.69761101 905.2690722 620.51786232 905.31126022 C604.0454431 905.61442016 604.0454431 905.61442016 598.99608898 901.62908363 C596.92080014 898.8253701 595.44996863 896.16275576 594 893 C592.98930593 891.44759727 591.95684353 889.90882066 590.88989258 888.39453125 C589.88880215 886.86891438 588.89042908 885.34151157 587.89453125 883.8125 C586.7500356 882.06703395 585.6055027 880.32159232 584.4609375 878.57617188 C583.86764648 877.66923584 583.27435547 876.7622998 582.66308594 875.82788086 C572.06572369 859.63404882 561.35230252 843.52396573 550.5 827.5 C540.11108537 812.15606988 529.85837585 796.72895978 519.6875 781.23974609 C510.72295137 767.59247662 501.65375417 754.02102213 492.5 740.5 C482.11995516 725.16762234 471.87313424 709.75402667 461.71166992 694.27600098 C451.03105866 678.01244257 440.19221915 661.85975012 429.27539062 645.75390625 C428.68995483 644.889328 428.10451904 644.02474976 427.50134277 643.13397217 C426.41814891 641.53478342 425.33370563 639.93643983 424.24768066 638.33917236 C421.05428504 633.62529425 417.98265636 628.84998918 415 624 C410.9357043 627.63304186 408.22428113 631.96646178 405.28515625 636.50390625 C404.72642319 637.35730087 404.16769012 638.2106955 403.59202576 639.08995056 C402.38102141 640.94004389 401.17203704 642.79146066 399.96484375 644.64404297 C396.69739548 649.65675814 393.41339953 654.65859877 390.12890625 659.66015625 C389.45231964 660.69085236 388.77573303 661.72154846 388.0786438 662.78347778 C381.3076048 673.08245773 374.41340057 683.29628018 367.5 693.5 C357.7275926 707.93175488 348.06660598 722.43102813 338.5 737 C328.3416981 752.47006483 318.06275981 767.85193641 307.6875 783.17724609 C298.5231084 796.71891848 289.47496769 810.33212187 280.5 824 C269.36206099 840.96154683 258.0859307 857.8247624 246.71484375 874.63085938 C246.1384465 875.48278366 245.56204926 876.33470795 244.96818542 877.21244812 C243.91750664 878.76466438 242.86624716 880.31648789 241.81416321 881.86775208 C241.32675156 882.58726547 240.8393399 883.30677887 240.3371582 884.0480957 C239.83516592 884.75125381 239.33317364 885.45441191 238.81596947 886.17887783 C237.40539062 888.37022264 236.33982933 890.36049877 235.25909901 892.7049675 C232.80356049 897.63125322 230.18942939 902.72694151 224.84628975 904.85965192 C218.31989171 906.24214126 211.65634967 905.87846802 205.02685547 905.70288086 C202.7889586 905.69864601 200.55104091 905.70103211 198.31315613 905.70951843 C192.25631686 905.71381285 186.20395686 905.62580198 180.14815664 905.52090907 C173.81296262 905.42696895 167.47765926 905.41831516 161.14187622 905.40052795 C150.51395297 905.35924147 139.88779385 905.26563305 129.26074219 905.1315918 C118.31909322 904.9937267 107.37789 904.88764128 96.43554688 904.82397461 C95.76012611 904.82003376 95.08470535 904.8160929 94.3888173 904.81203263 C91.00014226 904.79245587 87.61146408 904.77350054 84.2227838 904.75485408 C56.14738395 904.59956437 28.07379409 904.33443639 0 904 C1.25254392 900.79414192 2.53076167 897.94965396 4.42895508 895.07568359 C4.91697098 894.33220673 5.40498688 893.58872986 5.90779114 892.82272339 C6.43966537 892.02270905 6.97153961 891.2226947 7.51953125 890.3984375 C8.08109421 889.54645782 8.64265717 888.69447815 9.22123718 887.81668091 C11.08027128 884.99963612 12.9461884 882.1872277 14.8125 879.375 C16.12516655 877.39008409 17.4376639 875.40505627 18.75 873.41992188 C28.18409551 859.16729289 37.724411 844.98755888 47.30508423 830.83319092 C56.47200692 817.28807103 65.52272656 803.67147811 74.5 790 C84.6583019 774.52993517 94.93724019 759.14806359 105.3125 743.82275391 C114.47689097 730.28108245 123.5250735 716.66790396 132.5 703 C142.6583019 687.52993517 152.93724019 672.14806359 163.3125 656.82275391 C172.47689097 643.28108245 181.5250735 629.66790396 190.5 616 C200.6583019 600.52993517 210.93724019 585.14806359 221.3125 569.82275391 C231.08644346 555.38038325 240.71974452 540.85074574 250.29034424 526.27297974 C260.91246188 510.09881218 271.69022142 494.03383997 282.54882812 478.01757812 C285.25284582 474.02868361 287.94663264 470.033097 290.63171387 466.03143311 C291.87966723 464.17865266 293.14026109 462.33516862 294.40332031 460.49267578 C295.05655273 459.51669434 295.70978516 458.54071289 296.3828125 457.53515625 C297.19709717 456.33644897 297.19709717 456.33644897 298.02783203 455.11352539 C299.23682144 452.48514234 298.90324957 451.69650298 298 449 C296.98151506 447.09235086 296.98151506 447.09235086 295.68457031 445.18920898 C295.19647888 444.44565659 294.70838745 443.70210419 294.20550537 442.9360199 C293.66846985 442.13084427 293.13143433 441.32566864 292.578125 440.49609375 C292.01514709 439.64269913 291.45216919 438.7893045 290.87213135 437.91004944 C289.00388545 435.08198229 287.12712506 432.25967997 285.25 429.4375 C283.93265192 427.44810919 282.61559907 425.45852286 281.29882812 423.46875 C271.84529234 409.20229468 262.28802598 395.00649892 252.69519043 380.83346558 C242.91112565 366.37653014 233.26907316 351.83151148 223.6875 337.23974609 C214.72295137 323.59247662 205.65375417 310.02102213 196.5 296.5 C186.1118014 281.15557842 175.85838316 265.7289709 165.6875 250.23974609 C156.72295137 236.59247662 147.65375417 223.02102213 138.5 209.5 C128.1118014 194.15557842 117.85838316 178.7289709 107.6875 163.23974609 C98.72295137 149.59247662 89.65375417 136.02102213 80.5 122.5 C70.72901519 108.0672657 61.06663439 93.56898733 51.5 79 C39.73443613 61.08236451 27.80742489 43.27880701 15.79385376 25.52661133 C14.16548403 23.11995003 12.53843824 20.71239846 10.91162109 18.3046875 C9.08225757 15.59724444 7.24668205 12.89424104 5.40478516 10.1953125 C4.66921387 9.10992187 3.93364258 8.02453125 3.17578125 6.90625 C2.55227783 5.99166016 1.92877441 5.07707031 1.28637695 4.13476562 C0 2 0 2 0 0 Z " fill="#5D4F86" transform="translate(301,0)"/>
<path d="M0 0 C28.42095442 -0.98544299 56.83972729 -1.74413015 85.2744808 -2.19580917 C88.64696374 -2.24957599 92.01941301 -2.30523314 95.3918457 -2.36206055 C96.06310825 -2.3733399 96.7343708 -2.38461924 97.42597464 -2.39624039 C108.23343751 -2.5823285 119.03085477 -2.92066824 129.83239653 -3.31757023 C140.95473416 -3.72278464 152.07161803 -3.95591742 163.20095283 -4.04580528 C169.44205261 -4.10147545 175.66058259 -4.22991909 181.89435387 -4.54639244 C218.74302488 -6.34555309 218.74302488 -6.34555309 229.52429438 1.93994093 C240.08845311 12.00680541 247.0212648 25.11204588 253.4665699 38.03962517 C256.52932377 44.166004 260.21925477 49.71071395 264.15625 55.3125 C265.23825117 56.94993898 266.31534487 58.59064523 267.38476562 60.23632812 C277.96092712 76.41232597 288.66533874 92.49610784 299.5 108.5 C309.8881986 123.84442158 320.14161684 139.2710291 330.3125 154.76025391 C339.27704863 168.40752338 348.34624583 181.97897787 357.5 195.5 C367.8881986 210.84442158 378.14161684 226.2710291 388.3125 241.76025391 C397.27704863 255.40752338 406.34624583 268.97897787 415.5 282.5 C425.8881986 297.84442158 436.14161684 313.2710291 446.3125 328.76025391 C455.8628514 343.29932604 465.54143975 357.74624144 475.29437256 372.15005493 C486.06233799 388.0583524 496.66688708 404.07026129 507.19726562 420.13671875 C514.00488247 430.5147834 520.91694988 440.80773204 528 451 C524.70770835 457.15051005 521.12693349 462.9837474 517.1875 468.73828125 C516.63018188 469.55967087 516.07286377 470.38106049 515.49865723 471.2273407 C514.29704639 472.99818294 513.09391562 474.76799461 511.8894043 476.53686523 C508.61469808 481.34758174 505.35347938 486.16740809 502.09375 490.98828125 C501.08350769 492.48223923 501.08350769 492.48223923 500.05285645 494.00637817 C493.11610988 504.2813381 486.30188372 514.63548459 479.5 525 C469.34280116 540.47077875 459.06274854 555.85195306 448.6875 571.17724609 C439.52310903 584.71891755 430.4749265 598.33209604 421.5 612 C411.3416981 627.47006483 401.06275981 642.85193641 390.6875 658.17724609 C381.52310903 671.71891755 372.4749265 685.33209604 363.5 699 C353.3416981 714.47006483 343.06275981 729.85193641 332.6875 745.17724609 C323.52310903 758.71891755 314.4749265 772.33209604 305.5 786 C295.34926385 801.45854295 285.07826858 816.82915716 274.71066284 832.14300537 C262.09878531 850.77870112 249.70292291 869.55423031 237.36097717 888.36953735 C236.41459854 889.81162231 235.4503479 891.24223084 234.46386147 892.65718174 C232.93276842 894.92008851 232.93276842 894.92008851 232.16248035 897.36040974 C230.8411611 900.47175419 229.72441777 901.95150758 227 904 C220.10326378 905.8299021 212.54526504 905.1332033 205.48095703 905.02172852 C203.2436483 905.01918955 201.00633207 905.02061543 198.76902771 905.02571106 C192.6966061 905.02829483 186.6257824 904.97535993 180.5537324 904.91254544 C174.20768733 904.85630721 167.86160615 904.85099874 161.51535034 904.84031677 C150.86408564 904.81551617 140.21345252 904.7592905 129.5625 904.67895508 C118.59345425 904.5963066 107.62456782 904.53261953 96.65527344 904.49438477 C95.97880178 904.49202025 95.30233013 904.48965574 94.60535933 904.48721958 C91.21159996 904.47547399 87.81783947 904.46410068 84.42407823 904.45291245 C56.28231095 904.35965592 28.14119195 904.20050661 0 904 C1.25254392 900.79414192 2.53076167 897.94965396 4.42895508 895.07568359 C4.91697098 894.33220673 5.40498688 893.58872986 5.90779114 892.82272339 C6.43966537 892.02270905 6.97153961 891.2226947 7.51953125 890.3984375 C8.08109421 889.54645782 8.64265717 888.69447815 9.22123718 887.81668091 C11.08027128 884.99963612 12.9461884 882.1872277 14.8125 879.375 C16.12516655 877.39008409 17.4376639 875.40505627 18.75 873.41992188 C28.18409551 859.16729289 37.724411 844.98755888 47.30508423 830.83319092 C56.47200692 817.28807103 65.52272656 803.67147811 74.5 790 C84.6583019 774.52993517 94.93724019 759.14806359 105.3125 743.82275391 C114.47689097 730.28108245 123.5250735 716.66790396 132.5 703 C142.6583019 687.52993517 152.93724019 672.14806359 163.3125 656.82275391 C172.47689097 643.28108245 181.5250735 629.66790396 190.5 616 C200.6583019 600.52993517 210.93724019 585.14806359 221.3125 569.82275391 C231.08644346 555.38038325 240.71974452 540.85074574 250.29034424 526.27297974 C260.91246188 510.09881218 271.69022142 494.03383997 282.54882812 478.01757812 C285.25284582 474.02868361 287.94663264 470.033097 290.63171387 466.03143311 C291.87966723 464.17865266 293.14026109 462.33516862 294.40332031 460.49267578 C295.05655273 459.51669434 295.70978516 458.54071289 296.3828125 457.53515625 C297.19709717 456.33644897 297.19709717 456.33644897 298.02783203 455.11352539 C299.23682144 452.48514234 298.90324957 451.69650298 298 449 C296.98151506 447.09235086 296.98151506 447.09235086 295.68457031 445.18920898 C295.19647888 444.44565659 294.70838745 443.70210419 294.20550537 442.9360199 C293.66846985 442.13084427 293.13143433 441.32566864 292.578125 440.49609375 C292.01514709 439.64269913 291.45216919 438.7893045 290.87213135 437.91004944 C289.00388545 435.08198229 287.12712506 432.25967997 285.25 429.4375 C283.93265192 427.44810919 282.61559907 425.45852286 281.29882812 423.46875 C271.84529234 409.20229468 262.28802598 395.00649892 252.69519043 380.83346558 C242.91112565 366.37653014 233.26907316 351.83151148 223.6875 337.23974609 C214.72295137 323.59247662 205.65375417 310.02102213 196.5 296.5 C186.1118014 281.15557842 175.85838316 265.7289709 165.6875 250.23974609 C156.72295137 236.59247662 147.65375417 223.02102213 138.5 209.5 C128.1118014 194.15557842 117.85838316 178.7289709 107.6875 163.23974609 C98.72295137 149.59247662 89.65375417 136.02102213 80.5 122.5 C70.72901519 108.0672657 61.06663439 93.56898733 51.5 79 C39.73443613 61.08236451 27.80742489 43.27880701 15.79385376 25.52661133 C14.16548403 23.11995003 12.53843824 20.71239846 10.91162109 18.3046875 C9.08225757 15.59724444 7.24668205 12.89424104 5.40478516 10.1953125 C4.66921387 9.10992187 3.93364258 8.02453125 3.17578125 6.90625 C2.55227783 5.99166016 1.92877441 5.07707031 1.28637695 4.13476562 C0 2 0 2 0 0 Z " fill="#443A61" transform="translate(0,0)"/>
<path d="M0 0 C165.66 0 331.32 0 502 0 C502 50.16 502 100.32 502 152 C451.28051185 152.94971407 400.56947054 153.74292316 349.8436219 154.19580917 C343.84242825 154.24958337 337.84125343 154.30523983 331.84008789 154.36206055 C330.64546775 154.3733399 329.45084762 154.38461924 328.22002687 154.39624039 C308.92761909 154.58287458 289.64077455 154.92161177 270.35165707 155.31757023 C250.52805773 155.72107668 230.70735093 155.95880635 210.87981433 156.04580528 C199.7529153 156.09930249 188.63766965 156.22793555 177.51493263 156.54639244 C105.31175493 158.55495411 105.31175493 158.55495411 90.72335869 145.26223749 C82.30388538 136.14879914 77.12290712 125.52855752 72.91657829 113.96035194 C70.53777496 107.47259786 66.93841294 102.23707394 62.84375 96.6875 C61.75641136 95.05078166 60.67731966 93.40851365 59.61132812 91.7578125 C47.56317358 73.33054769 35.33943956 55.02743761 22.97851562 36.80859375 C17.14454809 28.20335613 11.35614931 19.56976166 5.65625 10.875 C4.80419983 9.58493042 4.80419983 9.58493042 3.93493652 8.26879883 C3.41822388 7.47626709 2.90151123 6.68373535 2.36914062 5.8671875 C1.91043579 5.16706543 1.45173096 4.46694336 0.97912598 3.74560547 C0 2 0 2 0 0 Z " fill="#8F4D8B" transform="translate(778,263)"/>
<path d="M0 0 C116.16 0 232.32 0 352 0 C352 49.83 352 99.66 352 151 C289.19512698 152.04861508 289.19512698 152.04861508 262.89648438 152.26953125 C256.87782963 152.32042935 250.85919252 152.37295999 244.84057617 152.42822266 C244.08632935 152.43508012 243.33208253 152.44193759 242.55497974 152.44900286 C230.40655094 152.56183074 218.26134956 152.76664797 206.11482931 153.0059727 C193.6317021 153.24986228 181.15025356 153.3936785 168.66484207 153.44630086 C161.65749624 153.47866205 154.65691235 153.55655931 147.65197945 153.74898148 C102.18436518 154.96198442 102.18436518 154.96198442 93.41475278 147.00871897 C88.40251171 141.54698523 85.62861411 135.23612915 83.23849297 128.25570869 C81.27587583 123.09644672 78.18718872 118.82694815 75.015625 114.34765625 C73.89336713 112.65286328 72.77612073 110.95473103 71.66601562 109.25195312 C70.52751065 107.52202556 69.38883462 105.79221057 68.25 104.0625 C67.64824951 103.14831299 67.04649902 102.23412598 66.42651367 101.29223633 C55.73016207 85.0518995 44.89949503 68.90479474 33.98144531 52.81274414 C26.69759697 42.06752714 19.55497228 31.23995889 12.51142883 20.33573914 C9.44030047 15.58966406 6.35141682 10.85505229 3.25585938 6.12487793 C0 1.11242402 0 1.11242402 0 0 Z " fill="#8F4D8B" transform="translate(928,489)"/>
</svg>
