<?xml version="1.0" encoding="UTF-8"?>
<svg version="1.1" xmlns="http://www.w3.org/2000/svg" width="512" height="512">
<path d="M0 0 C3.99013085 1.38724979 6.82880924 3.25150123 10.125 5.875 C63.8241775 47.2107995 137.13488789 72.75562316 205 64 C258.32659689 56.56201131 309.52537794 32.68279769 352 0 C352.66 0.33 353.32 0.66 354 1 C353.78384033 1.50635986 353.56768066 2.01271973 353.3449707 2.53442383 C333.29821112 49.9171897 336.91206286 93.85146337 356 141 C358.04500812 145.8539642 360.15283542 150.68119689 362.24649048 155.51431274 C362.55702362 156.23146454 362.86755676 156.94861633 363.1875 157.6875 C363.49634125 158.40054291 363.8051825 159.11358582 364.12338257 159.84823608 C377.11646659 189.97151192 380.67933899 220.94810494 368.89794922 252.10620117 C364.30607648 263.62622505 358.0836699 273.57188815 350 283 C349.52175781 283.61101562 349.04351562 284.22203125 348.55078125 284.8515625 C333.00361837 304.36347465 306.29677377 316.63507396 282 320 C280.06246954 319.95682265 278.12554946 319.86179263 276.19267273 319.72080994 C265.42251277 319.25897956 255.90817041 319.00219959 247.19912434 326.02838993 C243.09524813 329.81704372 239.29600556 333.82982466 235.51953125 337.94140625 C233.83756689 339.67199715 232.14967061 341.39684039 230.45622253 343.11619568 C226.06083808 347.60983566 221.74924008 352.17582624 217.45178223 356.76293945 C213.03439156 361.44858941 208.54039554 366.05952331 204.05273438 370.67773438 C195.29300221 379.71448744 186.61730657 388.82743531 178 398 C175.0464502 396.67756549 173.0593599 395.27765947 170.8533783 392.91893005 C170.2558374 392.28656433 169.65829651 391.65419861 169.04264832 391.00267029 C168.07588921 389.9638546 168.07588921 389.9638546 167.08959961 388.90405273 C165.66175277 387.39022901 164.23333502 385.87694363 162.8044281 384.36412048 C162.04814054 383.56066633 161.29185299 382.75721218 160.51264763 381.92941093 C155.62763758 376.76393536 150.67489806 371.66317439 145.73404598 366.55119228 C141.40852175 362.06823267 137.10920499 357.56504283 132.8605957 353.0090332 C113.49665401 329.80377482 113.49665401 329.80377482 87.16053772 318.17494202 C82.90040116 318.28580253 78.86745648 318.79247131 74.69184875 319.62553406 C70.36047658 320.22807585 66.4499064 319.36586652 62.25 318.3125 C61.50134674 318.12522842 60.75269348 317.93795685 59.98135376 317.74501038 C43.526555 313.4464074 29.26501152 305.52446395 16 295 C14.97712891 294.19369141 14.97712891 294.19369141 13.93359375 293.37109375 C-3.86939414 278.75432293 -14.6532222 256.99326995 -20 235 C-20.36931641 233.54980469 -20.36931641 233.54980469 -20.74609375 232.0703125 C-25.74119974 208.30049777 -20.66963794 184.88719972 -11.30126953 163.04199219 C11.47095753 109.80710492 24.4573081 61.28403353 2.23535156 5.48413086 C1.49633621 3.65361197 0.74912778 1.82640375 0 0 Z M34 163 C33.33613281 163.63292969 32.67226562 164.26585937 31.98828125 164.91796875 C19.70593484 177.42112139 14.6875 196.53486674 14.6875 213.52929688 C15.06595833 232.50382113 23.63590542 250.69401018 37 264 C53.71136952 278.65075349 72.60478143 284.5259382 94.53173828 283.22314453 C113.61712321 281.49772002 130.47619088 271.0865461 142.83203125 256.828125 C156.16187219 239.43928745 160.48490805 219.37545144 157.71582031 197.78417969 C154.18813766 179.2189222 142.5859419 163.12826556 127.51171875 152.1953125 C97.23182313 131.77500663 58.87850624 137.2043138 34 163 Z M210.91015625 166.4296875 C197.34856343 184.67821117 193.98354655 204.32764105 196.390625 226.6171875 C200.37988325 245.080293 212.77307009 261.83420932 228.29296875 272.19921875 C235.80439416 276.81977182 243.39693186 279.90544283 252 282 C252.74378906 282.19078125 253.48757813 282.3815625 254.25390625 282.578125 C272.94175836 285.44908948 291.89698373 282.13975826 307.53125 271.234375 C309.73780549 269.54268246 311.87069138 267.78725101 314 266 C314.99 265.278125 315.98 264.55625 317 263.8125 C329.97147014 252.75071852 337.48026376 234.70248292 339.21142578 217.95458984 C340.46281215 199.24658782 334.9808909 179.85128492 322.68994141 165.46679688 C309.37809505 150.69517774 291.86657091 140.9273273 271.73828125 139.6796875 C247.84758168 138.78372153 226.53760427 148.01047772 210.91015625 166.4296875 Z M176 273 C174.49457477 274.68006144 174.49457477 274.68006144 172.9375 276.875 C163.19986236 289.65190031 152.42778081 299.73083474 138 307 C142.30627256 312.14829744 146.82311931 316.95752072 151.5859375 321.68359375 C152.63861313 322.73414696 152.63861313 322.73414696 153.71255493 323.80592346 C155.93101136 326.01883027 158.15293815 328.22821416 160.375 330.4375 C161.88955466 331.94703314 163.40387985 333.45679657 164.91796875 334.96679688 C168.60933099 338.64719702 172.30354069 342.32471957 176 346 C179.18259851 344.59490901 181.31348466 342.93078658 183.75878906 340.46826172 C184.47923401 339.74766571 185.19967896 339.0270697 185.94195557 338.28463745 C186.70876648 337.50750397 187.47557739 336.73037048 188.265625 335.9296875 C189.45572174 334.73534592 189.45572174 334.73534592 190.66986084 333.51687622 C193.20130703 330.97424052 195.72570803 328.42473652 198.25 325.875 C199.96568617 324.14928247 201.68182662 322.42401645 203.3984375 320.69921875 C207.60424248 316.47136968 211.80428507 312.23786131 216 308 C212.72296928 305.51686872 209.35438013 303.22510748 205.9375 300.9375 C194.78404648 293.29324613 185.51790346 284.2768552 178 273 C177.34 273 176.68 273 176 273 Z " fill="#EF524F" transform="translate(79,57)"/>
<path d="M0 0 C8.05692768 5.77935095 13.57001272 13.04051974 15.8984375 22.7578125 C17.62917782 33.43615374 15.85287622 43.44947595 9.74609375 52.4375 C4.06677038 59.86549786 -3.25603588 65.60864061 -12.6875 67.3125 C-25.37416369 68.23269796 -35.68827606 66.66504795 -45.68359375 58.296875 C-49.01765497 54.99530951 -51.44124204 51.4162405 -53.6875 47.3125 C-54.0278125 46.72210938 -54.368125 46.13171875 -54.71875 45.5234375 C-58.60468564 37.35577648 -57.84943998 25.67331993 -55.0625 17.3125 C-51.11864155 8.11476018 -45.09559024 1.23517005 -35.9296875 -2.9453125 C-23.56692375 -7.56117468 -11.30255736 -7.00682187 0 0 Z " fill="#EF524F" transform="translate(366.6875,246.6875)"/>
<path d="M0 0 C7.79977674 6.67936682 12.49050488 15.50572319 13.49609375 25.69921875 C13.69608312 37.52211958 11.62496264 47.31907502 3.14453125 56.1875 C-5.93260712 64.05318277 -15.22918919 66.46030336 -27.08984375 66.23828125 C-37.74611038 65.39149845 -44.73839593 60.71936665 -51.875 52.9375 C-58.6284255 44.59693853 -60.96579086 34.51211142 -59.875 23.9375 C-57.9119713 13.04269071 -51.91516139 4.26561298 -42.875 -2.0625 C-29.27424592 -9.54518911 -12.87239046 -9.10699733 0 0 Z " fill="#EF524F" transform="translate(188.875,248.0625)"/>
</svg>
